<svg width="776" height="584" viewBox="0 0 776 584" fill="none" xmlns="http://www.w3.org/2000/svg">
<rect width="776" height="584" fill="white"/>
<path d="M385.662 221C427.359 221 461.162 187.197 461.162 145.5C461.162 103.803 427.359 70 385.662 70C343.965 70 310.162 103.803 310.162 145.5C310.162 187.197 343.965 221 385.662 221Z" fill="#FDBBAB"/>
<path d="M461.163 145.5C461.163 187.313 427.105 221 385.663 221V70C427.293 70 461.163 103.87 461.163 145.5Z" fill="#FFA58D"/>
<path d="M665.603 406C655.313 435.1 627.523 456 594.943 456H568.813V406H665.603Z" fill="#FFA58D"/>
<path d="M468.483 582H336.613C328.333 582 321.613 575.28 321.613 567V271.32H326.663C326.623 279.82 328.363 288.38 331.903 296.44L405.953 455.02C407.553 458.65 411.143 461 415.113 461H475.463L483.443 565.86C484.103 574.57 477.223 582 468.483 582V582Z" fill="#F05454"/>
<path d="M468.483 582H385.663V411.57L405.953 455.02C407.553 458.65 411.143 461 415.113 461H475.463C477.958 493.792 482.502 553.496 483.443 565.86C484.103 574.57 477.223 582 468.483 582V582Z" fill="#F05454"/>
<path d="M405.065 466C403.082 466 401.285 464.827 400.487 463.01L326.433 294.429C318.684 276.788 320.352 256.617 330.895 240.471C341.435 224.329 359.23 214.693 378.498 214.693C404.686 214.693 427.381 232.444 433.689 257.86L466.091 388.409C467.2 392.878 471.191 396 475.797 396H569.815C572.572 396 574.815 398.243 574.815 401V461C574.815 463.757 572.572 466 569.815 466H405.065Z" fill="#F05454"/>
<path d="M574.813 401V461C574.813 463.76 572.573 466 569.813 466H405.063C403.083 466 401.283 464.83 400.483 463.01L385.663 429.27V215.14C408.737 218.03 427.967 234.798 433.693 257.86L466.093 388.41C467.203 392.88 471.193 396 475.793 396H569.813C572.573 396 574.813 398.24 574.813 401V401Z" fill="#F05454"/>
<path d="M729.838 221V401C729.838 409.28 723.118 416 714.838 416H534.838C526.558 416 519.838 409.28 519.838 401V221C519.838 212.72 526.558 206 534.838 206H714.838C723.118 206 729.838 212.72 729.838 221Z" fill="#C4A27A"/>
<path d="M729.838 221V401C729.838 409.28 723.118 416 714.838 416H624.838V206H714.838C723.118 206 729.838 212.72 729.838 221Z" fill="#9B7C5D"/>
<path d="M659.863 206V261C659.863 269.28 653.143 276 644.863 276H604.813C596.533 276 589.813 269.28 589.813 261V206H659.863Z" fill="#9B7C5D"/>
<path d="M659.858 206V261C659.858 269.28 653.148 276 644.858 276H624.838V206H659.858Z" fill="#7A6047"/>
<ellipse cx="74.7496" cy="423.062" rx="70.5309" ry="70.3125" fill="#30475E"/>
<path d="M75 583.147L10.0481 450.076H139.952L75 583.147Z" fill="#30475E"/>
<path d="M88.6 386V470H71.2V400.4H70L55.6 408.2L50.2 400.4L70.6 386H88.6Z" fill="#F05454"/>
<path d="M170.778 95.6167V145.025C170.778 149.069 167.505 152.343 163.461 152.343H114.052C110.013 152.343 106.734 149.069 106.734 145.025V95.6167C106.734 91.5773 110.013 88.2991 114.052 88.2991H163.461C167.505 88.2991 170.778 91.5773 170.778 95.6167V95.6167Z" fill="#C4A27A"/>
<path d="M170.778 95.6167V145.025C170.778 149.069 167.505 152.343 163.461 152.343H138.756V88.2991H163.461C167.505 88.2991 170.778 91.5773 170.778 95.6167V95.6167Z" fill="#9B7C5D"/>
<path d="M146.074 88.2991V100.495C146.074 104.534 142.801 107.813 138.756 107.813C134.717 107.813 131.439 104.534 131.439 100.495V88.2991H146.074Z" fill="#9B7C5D"/>
<path d="M146.074 88.2991V100.495C146.074 104.534 142.801 107.813 138.756 107.813V88.2991H146.074Z" fill="#7A6047"/>
<path d="M138.756 7.80546V57.2139C138.756 61.2581 135.483 64.5315 131.439 64.5315H82.0303C77.991 64.5315 74.7127 61.2581 74.7127 57.2139V7.80546C74.7127 3.76614 77.991 0.487854 82.0303 0.487854H131.439C135.483 0.487854 138.756 3.76614 138.756 7.80546Z" fill="#C4A27A"/>
<path d="M138.756 7.80546V57.2139C138.756 61.2581 135.483 64.5315 131.439 64.5315H106.734V0.487854H131.439C135.483 0.487854 138.756 3.76614 138.756 7.80546V7.80546Z" fill="#9B7C5D"/>
<path d="M114.052 0.487854V12.6839C114.052 16.7232 110.779 20.0015 106.734 20.0015C102.695 20.0015 99.4169 16.7232 99.4169 12.6839V0.487854H114.052Z" fill="#9B7C5D"/>
<path d="M114.052 0.487854V12.6839C114.052 16.7232 110.779 20.0015 106.734 20.0015V0.487854H114.052Z" fill="#7A6047"/>
<path d="M202.8 7.80546V57.2139C202.8 61.2581 199.527 64.5315 195.482 64.5315H146.074C142.035 64.5315 138.756 61.2581 138.756 57.2139V7.80546C138.756 3.76614 142.035 0.487854 146.074 0.487854H195.482C199.527 0.487854 202.8 3.76614 202.8 7.80546V7.80546Z" fill="#C4A27A"/>
<path d="M202.8 7.80546V57.2139C202.8 61.2581 199.527 64.5315 195.482 64.5315H170.778V0.487854H195.482C199.527 0.487854 202.8 3.76614 202.8 7.80546Z" fill="#9B7C5D"/>
<path d="M178.096 0.487854V12.6839C178.096 16.7232 174.822 20.0015 170.778 20.0015C166.739 20.0015 163.461 16.7232 163.461 12.6839V0.487854H178.096Z" fill="#9B7C5D"/>
<path d="M178.096 0.487854V12.6839C178.096 16.7232 174.822 20.0015 170.778 20.0015V0.487854H178.096Z" fill="#7A6047"/>
<path d="M256.57 146.352H234.129V73.176H256.57C260.611 73.176 263.887 69.8997 263.887 65.8584C263.887 61.8171 260.611 58.5408 256.57 58.5408H234.129V7.3176C234.129 3.27633 230.853 0 226.812 0C222.77 0 219.494 3.27633 219.494 7.3176V58.5408H58.0189V7.3176C58.0189 3.27633 54.7426 0 50.7013 0C46.66 0 43.3837 3.27633 43.3837 7.3176V58.5408H21.4309C17.3896 58.5408 14.1133 61.8171 14.1133 65.8584C14.1133 69.8997 17.3896 73.176 21.4309 73.176H43.3837V146.352H21.4309C17.3896 146.352 14.1133 149.628 14.1133 153.67C14.1133 157.711 17.3896 160.987 21.4309 160.987H43.3837V241.969C43.3837 246.01 46.66 249.286 50.7013 249.286C54.7426 249.286 58.0189 246.01 58.0189 241.969V160.987H219.494V241.969C219.494 246.01 222.77 249.286 226.812 249.286C230.853 249.286 234.129 246.01 234.129 241.969V160.987H256.57C260.611 160.987 263.887 157.711 263.887 153.67C263.887 149.628 260.611 146.352 256.57 146.352V146.352ZM58.0189 146.352V73.176H219.494V146.352H58.0189Z" fill="#30475E"/>
<path d="M256.57 146.352H234.129V73.176H256.57C260.609 73.176 263.887 69.8977 263.887 65.8584C263.887 61.8191 260.609 58.5408 256.57 58.5408H234.129V7.3176C234.129 3.27829 230.851 0 226.811 0C222.772 0 219.494 3.27829 219.494 7.3176V58.5408H138.756V73.176H219.494V146.352H138.756V160.987H219.494V241.969C219.494 246.008 222.772 249.286 226.811 249.286C230.851 249.286 234.129 246.008 234.129 241.969V160.987H256.57C260.609 160.987 263.887 157.709 263.887 153.67C263.887 149.63 260.609 146.352 256.57 146.352V146.352Z" fill="#30475E"/>
<path d="M138.756 193.121V242.529C138.756 246.573 135.483 249.847 131.439 249.847H82.0303C77.991 249.847 74.7127 246.573 74.7127 242.529V193.121C74.7127 189.081 77.991 185.803 82.0303 185.803H131.439C135.483 185.803 138.756 189.081 138.756 193.121Z" fill="#C4A27A"/>
<path d="M138.756 193.121V242.529C138.756 246.573 135.483 249.847 131.439 249.847H106.734V185.803H131.439C135.483 185.803 138.756 189.081 138.756 193.121V193.121Z" fill="#9B7C5D"/>
<path d="M114.052 185.803V197.999C114.052 202.038 110.779 205.317 106.734 205.317C102.695 205.317 99.4169 202.038 99.4169 197.999V185.803H114.052Z" fill="#9B7C5D"/>
<path d="M114.052 185.803V197.999C114.052 202.038 110.779 205.317 106.734 205.317V185.803H114.052Z" fill="#7A6047"/>
<path d="M202.8 193.274V242.682C202.8 246.727 199.527 250 195.482 250H146.074C142.035 250 138.756 246.727 138.756 242.682V193.274C138.756 189.235 142.035 185.956 146.074 185.956H195.482C199.527 185.956 202.8 189.235 202.8 193.274V193.274Z" fill="#C4A27A"/>
<path d="M202.8 193.274V242.682C202.8 246.727 199.527 250 195.482 250H170.778V185.956H195.482C199.527 185.956 202.8 189.235 202.8 193.274Z" fill="#9B7C5D"/>
<path d="M178.096 185.956V198.152C178.096 202.192 174.822 205.47 170.778 205.47C166.739 205.47 163.461 202.192 163.461 198.152V185.956H178.096Z" fill="#9B7C5D"/>
<path d="M178.096 185.956V198.152C178.096 202.192 174.822 205.47 170.778 205.47V185.956H178.096Z" fill="#7A6047"/>
</svg>
