<svg width="761" height="570" viewBox="0 0 761 570" fill="none" xmlns="http://www.w3.org/2000/svg">
<path d="M74.7496 479.375C113.703 479.375 145.28 447.895 145.28 409.062C145.28 370.229 113.703 338.75 74.7496 338.75C35.7965 338.75 4.21869 370.229 4.21869 409.062C4.21869 447.895 35.7965 479.375 74.7496 479.375Z" fill="#30475E"/>
<path d="M75 569.147L10.0481 436.076H139.952L75 569.147Z" fill="#30475E"/>
<path d="M82 412.5C84.5333 410.767 86.7333 408.667 88.6 406.2C90.5333 403.667 91.5 400.767 91.5 397.5C91.5 393.233 90.1333 389.833 87.4 387.3C84.6667 384.767 80.5333 383.5 75 383.5C70 383.5 65.4333 384.2 61.3 385.6C57.2333 386.933 53.3 389.233 49.5 392.5L45 386.5C48.8 383.233 53.2667 380.667 58.4 378.8C63.6 376.933 69.4667 376 76 376C81.2667 376 85.8333 376.5 89.7 377.5C93.5667 378.5 96.7667 379.933 99.3 381.8C101.9 383.6 103.833 385.767 105.1 388.3C106.367 390.767 107 393.5 107 396.5C107 399.5 106.567 402.2 105.7 404.6C104.833 406.933 103.667 409.067 102.2 411C100.8 412.933 99.1667 414.7 97.3 416.3C95.4333 417.9 93.5 419.467 91.5 421L66 440.5H108V448H46V440L82 412.5Z" fill="#F05454"/>
<path d="M469.061 11.7188V200.227C469.061 207.526 464.405 210.517 457.248 211.945C457.134 211.945 268.869 211.719 268.78 211.719C262.311 211.719 257.061 206.469 257.061 200V11.7188C257.061 5.25 262.311 0 268.78 0H457.342C463.811 0 469.061 5.25 469.061 11.7188Z" fill="#C4A27A"/>
<path d="M469.061 11.7188V200.227C469.061 207.523 464.405 210.516 457.248 211.945C457.194 211.945 410.139 211.891 363.061 211.828V0H457.342C463.811 0 469.061 5.25 469.061 11.7188Z" fill="#9B7C5D"/>
<path d="M398.217 0V59.375C398.217 65.8437 392.967 71.0938 386.498 71.0938H339.623C333.147 71.0938 327.905 65.8437 327.905 59.375V0H398.217Z" fill="#9B7C5D"/>
<path d="M398.217 0V59.375C398.217 65.8437 392.967 71.0938 386.498 71.0938H363.061V0H398.217Z" fill="#7A6047"/>
<path d="M420.502 199.77V388.277C420.502 395.577 415.847 398.568 408.69 399.996C408.576 399.996 220.31 399.77 220.221 399.77C213.752 399.77 208.502 394.52 208.502 388.051V199.77C208.502 193.301 213.752 188.051 220.221 188.051H408.784C415.252 188.051 420.502 193.301 420.502 199.77Z" fill="#C4A27A"/>
<path d="M420.498 199.766V388.281C420.498 395.578 415.85 398.57 408.686 400C408.631 400 361.577 399.938 314.506 399.883V188.047H408.78C415.256 188.047 420.498 193.297 420.498 199.766Z" fill="#9B7C5D"/>
<path d="M349.659 188.051V247.426C349.659 253.895 344.409 259.145 337.94 259.145H291.065C284.588 259.145 279.346 253.895 279.346 247.426V188.051H349.659Z" fill="#9B7C5D"/>
<path d="M349.662 188.047V247.422C349.662 253.898 344.412 259.141 337.944 259.141H314.506V188.047H349.662Z" fill="#7A6047"/>
<path d="M547.966 153.125H391.716C380.947 153.125 372.185 161.887 372.185 172.656V380.469C372.185 391.238 380.947 400 391.716 400H547.966C558.736 400 567.498 391.238 567.498 380.469V172.656C567.498 161.887 558.736 153.125 547.966 153.125Z" fill="#30475E"/>
<path d="M567.498 172.656V380.469C567.498 391.242 558.74 400 547.966 400H469.06V153.125H547.966C558.74 153.125 567.498 161.883 567.498 172.656Z" fill="#30475E"/>
<path d="M395.623 176.562H544.06V376.562H395.623V176.562Z" fill="#F8F8F8"/>
<path d="M469.06 176.562H544.06V376.562H469.06V176.562Z" fill="#F8F8F8"/>
<path d="M504.216 129.727H433.904C427.432 129.727 422.185 134.973 422.185 141.445V186.719C422.185 193.191 427.432 198.437 433.904 198.437H504.216C510.688 198.437 515.935 193.191 515.935 186.719V141.445C515.935 134.973 510.688 129.727 504.216 129.727Z" fill="#30475E"/>
<path d="M515.935 141.445V186.719C515.935 193.187 510.685 198.437 504.216 198.437H469.06V129.727H504.216C510.685 129.727 515.935 134.977 515.935 141.445Z" fill="#30475E"/>
<path d="M519.007 242.495C514.431 237.92 507.011 237.92 502.434 242.495L452.127 292.803L437.248 277.925C432.673 273.349 425.252 273.349 420.676 277.925C416.099 282.501 416.099 289.921 420.676 294.498L443.84 317.662C448.417 322.238 455.836 322.238 460.413 317.662L519.006 259.068C523.584 254.491 523.584 247.071 519.007 242.495Z" fill="#F05454"/>
<path d="M519.005 259.07L469.06 309.016V275.875L502.435 242.492C507.013 237.922 514.427 237.922 519.005 242.492C523.584 247.07 523.584 254.492 519.005 259.07Z" fill="#F05454"/>
<path d="M704.703 276.513C704.615 276.513 517.329 276.513 517.263 276.513C506.039 276.513 496.757 285.582 496.757 297.02V538.492C496.757 549.8 505.957 559 517.265 559H704.735C716.043 559 725.243 549.8 725.243 538.492V297.02C725.243 285.855 716.246 276.513 704.703 276.513Z" fill="#30475E"/>
<path d="M725.24 297.021V538.492C725.24 549.801 716.041 559 704.732 559H611V276.514H704.703C716.246 276.514 725.24 285.854 725.24 297.021Z" fill="#30475E"/>
<path d="M517.265 541.422C515.677 541.422 514.335 540.08 514.335 538.492V297.02C514.335 295.373 515.65 294.091 517.263 294.091H704.73C706.366 294.091 707.664 295.389 707.664 297.02V538.492C707.664 540.08 706.323 541.422 704.735 541.422H517.265Z" fill="#F8F8F8"/>
<path d="M707.662 297.021V538.492C707.662 540.08 706.32 541.422 704.732 541.422H611V294.092H704.732C706.367 294.092 707.662 295.387 707.662 297.021Z" fill="#F4F4F4"/>
<path d="M628.842 259H593.158C569.088 259 549.506 278.583 549.506 302.652C549.506 307.506 553.441 311.441 558.295 311.441H663.705C668.559 311.441 672.494 307.506 672.494 302.652C672.494 278.583 652.912 259 628.842 259Z" fill="#30475E"/>
<path d="M672.494 302.652C672.494 307.504 668.557 311.441 663.705 311.441H611V259H628.842C653.093 259 672.494 278.77 672.494 302.652Z" fill="#30475E"/>
<path d="M611 347.477H681.283C686.137 347.477 690.072 343.541 690.072 338.688C690.072 333.834 686.137 329.898 681.283 329.898H611C606.146 329.898 602.211 333.834 602.211 338.688C602.211 343.541 606.146 347.477 611 347.477Z" fill="#F4F4F4"/>
<path d="M690.072 338.688C690.072 343.539 686.135 347.477 681.283 347.477H611V329.898H681.283C686.135 329.898 690.072 333.836 690.072 338.688Z" fill="#F05454"/>
<path d="M611 382.34H663.734C668.588 382.34 672.523 378.405 672.523 373.551C672.523 368.697 668.588 364.762 663.734 364.762H611C606.146 364.762 602.211 368.697 602.211 373.551C602.211 378.405 606.146 382.34 611 382.34Z" fill="#F4F4F4"/>
<path d="M672.523 373.551C672.523 378.402 668.586 382.34 663.734 382.34H611V364.762H663.734C668.586 364.762 672.523 368.699 672.523 373.551Z" fill="#F05454"/>
<path d="M575.58 329.898H540.717C535.863 329.898 531.928 333.834 531.928 338.688V373.551C531.928 378.405 535.863 382.34 540.717 382.34H575.58C580.434 382.34 584.369 378.405 584.369 373.551V338.688C584.369 333.834 580.434 329.898 575.58 329.898ZM566.791 364.762H549.506V347.477H566.791V364.762Z" fill="#F05454"/>
<path d="M681.283 400.357H611C606.146 400.357 602.211 404.293 602.211 409.146C602.211 414 606.146 417.936 611 417.936H681.283C686.137 417.936 690.072 414 690.072 409.146C690.072 404.293 686.137 400.357 681.283 400.357Z" fill="#F4F4F4"/>
<path d="M690.072 409.146C690.072 413.998 686.135 417.936 681.283 417.936H611V400.357H681.283C686.135 400.357 690.072 404.295 690.072 409.146Z" fill="#F05454"/>
<path d="M611 452.799H663.734C668.588 452.799 672.523 448.864 672.523 444.01C672.523 439.156 668.588 435.221 663.734 435.221H611C606.146 435.221 602.211 439.156 602.211 444.01C602.211 448.864 606.146 452.799 611 452.799Z" fill="#F4F4F4"/>
<path d="M672.523 444.01C672.523 448.861 668.586 452.799 663.734 452.799H611V435.221H663.734C668.586 435.221 672.523 439.158 672.523 444.01Z" fill="#F05454"/>
<path d="M575.58 400.357H540.717C535.863 400.357 531.928 404.293 531.928 409.146V444.01C531.928 448.864 535.863 452.799 540.717 452.799H575.58C580.434 452.799 584.369 448.864 584.369 444.01V409.146C584.369 404.293 580.434 400.357 575.58 400.357ZM566.791 435.221H549.506V417.936H566.791V435.221Z" fill="#F05454"/>
<path d="M681.283 470.963H611C606.146 470.963 602.211 474.898 602.211 479.752C602.211 484.606 606.146 488.541 611 488.541H681.283C686.137 488.541 690.072 484.606 690.072 479.752C690.072 474.898 686.137 470.963 681.283 470.963Z" fill="#F4F4F4"/>
<path d="M690.072 479.752C690.072 484.604 686.135 488.541 681.283 488.541H611V470.963H681.283C686.135 470.963 690.072 474.9 690.072 479.752Z" fill="#F05454"/>
<path d="M663.734 505.826H611C606.146 505.826 602.211 509.761 602.211 514.615C602.211 519.469 606.146 523.404 611 523.404H663.734C668.588 523.404 672.523 519.469 672.523 514.615C672.523 509.761 668.588 505.826 663.734 505.826Z" fill="#F4F4F4"/>
<path d="M672.523 514.615C672.523 519.467 668.586 523.404 663.734 523.404H611V505.826H663.734C668.586 505.826 672.523 509.764 672.523 514.615Z" fill="#F05454"/>
<path d="M575.58 470.963H540.717C535.863 470.963 531.928 474.898 531.928 479.752V514.615C531.928 519.469 535.863 523.404 540.717 523.404H575.58C580.434 523.404 584.369 519.469 584.369 514.615V479.752C584.369 474.898 580.434 470.963 575.58 470.963ZM566.791 505.826H549.506V488.541H566.791V505.826Z" fill="#F05454"/>
</svg>
