<svg width="692" height="537" viewBox="0 0 692 537" fill="none" xmlns="http://www.w3.org/2000/svg">
<rect width="692" height="537" fill="white"/>
<ellipse cx="74.7496" cy="376.062" rx="70.5309" ry="70.3125" fill="#30475E"/>
<path d="M75 536.147L10.0481 403.076H139.952L75 536.147Z" fill="#30475E"/>
<path d="M75.5 350.5C70.5 350.5 65.9333 351.2 61.8 352.6C57.7333 353.933 53.8 356.233 50 359.5L45.5 353.5C49.3 350.233 53.7667 347.667 58.9 345.8C64.1 343.933 69.9667 343 76.5 343C81.6333 343 86.1333 343.467 90 344.4C93.8667 345.333 97.1 346.633 99.7 348.3C102.3 349.967 104.233 351.933 105.5 354.2C106.833 356.467 107.5 358.9 107.5 361.5C107.5 365.767 106.467 369.3 104.4 372.1C102.333 374.833 99.0333 376.967 94.5 378.5C99.5 379.767 103.4 381.9 106.2 384.9C109.067 387.833 110.5 391.7 110.5 396.5C110.5 399.367 109.833 402.067 108.5 404.6C107.167 407.067 105.067 409.233 102.2 411.1C99.4 412.9 95.8333 414.333 91.5 415.4C87.1667 416.467 82 417 76 417C69.4667 417 63.4333 415.967 57.9 413.9C52.4333 411.833 47.8 409.033 44 405.5L49 399.5C52.8 403.033 56.8333 405.6 61.1 407.2C65.3667 408.733 70 409.5 75 409.5C82 409.5 87.0667 408.167 90.2 405.5C93.4 402.833 95 399.5 95 395.5C95 391.5 93.7333 388.433 91.2 386.3C88.6667 384.1 84.7667 383 79.5 383H59V375.5H77.5C87.1667 375.5 92 371.167 92 362.5C92 358.967 90.5667 356.1 87.7 353.9C84.8333 351.633 80.7667 350.5 75.5 350.5Z" fill="#F05454"/>
<path d="M556 134.674V319.239C556 324.899 551.406 329.493 545.746 329.493H428.168V124.42H545.746C551.406 124.42 556 129.014 556 134.674V134.674Z" fill="#C4A27A"/>
<path d="M473.285 124.42V195.512C473.285 201.172 468.691 205.766 463.031 205.766H428.168V124.42H452.777H473.285Z" fill="#7A6047"/>
<path d="M425.918 21.6002L384.902 1.09306C382.017 -0.349319 378.62 -0.350003 375.734 1.09101L339.269 19.3081L302.837 1.09238C299.948 -0.353421 296.547 -0.350686 293.659 1.09511L257.298 19.3061L220.837 1.09101C214.032 -2.30713 206 2.64345 206 10.2635V339.746C206 345.409 210.591 350 216.254 350H421.332C426.995 350 431.586 345.409 431.586 339.746V30.7706C431.586 26.8871 429.392 23.3365 425.918 21.6002V21.6002Z" fill="#F4F4F4"/>
<path d="M431.586 30.7706V339.746C431.586 345.406 426.992 350 421.332 350H318.793V9.06719L339.267 19.3074L375.736 1.09033C378.621 -0.352051 382.019 -0.352051 384.903 1.09033L425.919 21.5975C429.392 23.3338 431.586 26.8885 431.586 30.7706V30.7706Z" fill="#F4F4F4"/>
<path d="M332.777 226.926C326.088 224.562 317.314 221.306 311.374 217.618C300.199 210.68 310.394 193.448 327.499 200.294C330.986 201.69 332.237 203.232 332.684 203.61C336.846 207.45 343.333 207.188 347.173 203.027C351.013 198.864 350.751 192.377 346.589 188.537C346.076 188.154 340.556 181.978 329.125 179.398V175.736C329.125 170.073 324.534 165.482 318.872 165.482C313.209 165.482 308.618 170.073 308.618 175.736V180.074C284.721 186.923 278.941 218.496 295.957 231.842C302.254 236.78 310.942 240.958 325.943 246.26C340.96 251.568 335.78 271.078 322.402 273.956C314.229 275.714 306.399 273.904 299.237 269.218C294.497 266.117 288.143 267.446 285.042 272.185C281.942 276.924 283.27 283.279 288.009 286.379C295.83 291.495 301.631 293.619 308.618 294.418V298.616C308.618 304.279 313.209 308.87 318.872 308.87C324.534 308.87 329.125 304.279 329.125 298.616V293.421C360.551 284.481 366.587 238.877 332.777 226.926V226.926Z" fill="#F05454"/>
<path d="M329.122 293.42V298.616C329.122 304.283 324.535 308.87 318.868 308.87H318.793V274.506C319.989 274.403 321.192 274.219 322.402 273.959C335.78 271.081 340.962 251.572 325.943 246.261C323.38 245.358 321.008 244.483 318.793 243.629V221.467C323.455 223.566 328.534 225.432 332.779 226.929C366.59 238.878 360.554 284.48 329.122 293.42Z" fill="#F05454"/>
<path d="M318.793 198.752V165.482H318.868C324.535 165.482 329.122 170.076 329.122 175.736V179.4C340.559 181.977 346.075 188.157 346.588 188.54C350.751 192.375 351.011 198.862 347.176 203.025C343.334 207.188 336.847 207.447 332.684 203.612C332.239 203.23 330.988 201.692 327.502 200.297C324.33 199.026 321.397 198.588 318.793 198.752V198.752Z" fill="#F05454"/>
<path d="M257.953 103.229H339.984C345.647 103.229 350.238 98.6385 350.238 92.9756C350.238 87.3127 345.647 82.7217 339.984 82.7217H257.953C252.29 82.7217 247.699 87.3127 247.699 92.9756C247.699 98.6392 252.29 103.229 257.953 103.229Z" fill="#30475E"/>
<path d="M350.238 92.9763C350.238 98.6364 345.645 103.23 339.984 103.23H318.793V82.7231H339.984C345.645 82.7224 350.238 87.3161 350.238 92.9763Z" fill="#30475E"/>
<path d="M381 123.737H257.953C252.29 123.737 247.699 128.328 247.699 133.991C247.699 139.653 252.29 144.244 257.953 144.244H381C386.663 144.244 391.254 139.653 391.254 133.991C391.254 128.328 386.663 123.737 381 123.737Z" fill="#30475E"/>
<path d="M391.254 133.991C391.254 139.651 386.66 144.244 381 144.244H318.793V123.737H381C386.66 123.737 391.254 128.33 391.254 133.991Z" fill="#30475E"/>
<path d="M492 333.406V447.078C492 458.944 501.619 468.562 513.484 468.562H674.422C677.658 468.562 680.281 465.939 680.281 462.703V333.406C678.756 331.881 677.9 331.025 676.375 329.5H495.906C494.381 331.025 493.525 331.881 492 333.406Z" fill="#F4F4F4"/>
<path d="M680.281 333.406V462.703C680.281 465.937 677.656 468.562 674.422 468.562H586.141V329.5H676.375C677.902 331.027 678.754 331.879 680.281 333.406Z" fill="#F4F4F4"/>
<path d="M692 411.922V478.328C692 485.867 685.867 492 678.328 492H576.766C569.227 492 563.094 485.867 563.094 478.328V411.922C563.094 404.383 569.227 398.25 576.766 398.25H678.328C685.867 398.25 692 404.383 692 411.922Z" fill="#F05454"/>
<path d="M692 411.922V478.328C692 485.867 685.867 492 678.328 492H627.547V398.25H678.328C685.867 398.25 692 404.383 692 411.922Z" fill="#F05454"/>
<path d="M563.094 421.297H692V433.016H563.094V421.297Z" fill="#30475E"/>
<path d="M627.547 421.297H692V433.016H627.547V421.297Z" fill="#30475E"/>
<path d="M595.516 456.453H589.656C586.42 456.453 583.797 459.077 583.797 462.312C583.797 465.548 586.42 468.172 589.656 468.172H595.516C598.752 468.172 601.375 465.548 601.375 462.312C601.375 459.077 598.752 456.453 595.516 456.453Z" fill="#30475E"/>
<path d="M618.953 456.453H613.094C609.858 456.453 607.234 459.077 607.234 462.312C607.234 465.548 609.858 468.172 613.094 468.172H618.953C622.189 468.172 624.812 465.548 624.812 462.312C624.812 459.077 622.189 456.453 618.953 456.453Z" fill="#30475E"/>
<path d="M642 456.453H636.141C632.905 456.453 630.281 459.077 630.281 462.312C630.281 465.548 632.905 468.172 636.141 468.172H642C645.236 468.172 647.859 465.548 647.859 462.312C647.859 459.077 645.236 456.453 642 456.453Z" fill="#30475E"/>
<path d="M665.438 456.453H659.578C656.342 456.453 653.719 459.077 653.719 462.312C653.719 465.548 656.342 468.172 659.578 468.172H665.438C668.673 468.172 671.297 465.548 671.297 462.312C671.297 459.077 668.673 456.453 665.438 456.453Z" fill="#30475E"/>
<path d="M539.248 380.378C534.371 378.654 526.325 376.333 529.637 372.4C531.404 370.302 535.45 370.75 537.347 372.272L537.696 372.593C540.075 374.786 543.782 374.635 545.975 372.255C548.168 369.876 548.017 366.169 545.638 363.976C545.453 363.835 543.277 361.473 538.875 360.123V356.844C538.875 353.608 536.252 350.984 533.016 350.984C529.78 350.984 527.156 353.608 527.156 356.844V360.309C516.409 363.981 513.821 378.582 521.955 384.962C525.49 387.734 530.479 389.707 535.343 391.427C538.246 392.453 538.542 394.536 538.279 396.101C537.986 397.845 536.484 400.804 532.714 400.829C528.808 400.854 527.884 400.711 525.028 398.842C522.32 397.071 518.688 397.83 516.917 400.538C515.145 403.246 515.905 406.877 518.613 408.649C521.828 410.752 524.354 411.759 527.156 412.212V415.438C527.156 418.673 529.78 421.297 533.016 421.297C536.252 421.297 538.875 418.673 538.875 415.438V411.414C552.843 406.11 554.588 385.8 539.248 380.378V380.378ZM537.274 372.204L537.333 372.258C537.294 372.224 537.274 372.204 537.274 372.204Z" fill="#30475E"/>
<path d="M568.562 362.703H650.594C653.83 362.703 656.453 360.08 656.453 356.844C656.453 353.608 653.83 350.984 650.594 350.984H568.562C565.327 350.984 562.703 353.608 562.703 356.844C562.703 360.08 565.327 362.703 568.562 362.703Z" fill="#30475E"/>
<path d="M656.453 356.844C656.453 360.078 653.828 362.703 650.594 362.703H586.141V350.984H650.594C653.828 350.984 656.453 353.609 656.453 356.844Z" fill="#30475E"/>
<path d="M650.594 374.422H568.562C565.327 374.422 562.703 377.045 562.703 380.281C562.703 383.517 565.327 386.141 568.562 386.141H650.594C653.83 386.141 656.453 383.517 656.453 380.281C656.453 377.045 653.83 374.422 650.594 374.422Z" fill="#30475E"/>
<path d="M656.453 380.281C656.453 383.516 653.828 386.141 650.594 386.141H586.141V374.422H650.594C653.828 374.422 656.453 377.047 656.453 380.281Z" fill="#30475E"/>
<path d="M680.281 313.484C680.281 301.638 670.643 292 658.797 292H513.484C501.638 292 492 301.638 492 313.484V333.406H680.281V313.484Z" fill="#30475E"/>
<path d="M680.281 313.484V333.406H586.141V292H658.797C670.645 292 680.281 301.637 680.281 313.484Z" fill="#30475E"/>
</svg>
