<svg width="669" height="516" viewBox="0 0 669 516" fill="none" xmlns="http://www.w3.org/2000/svg">
<path d="M74.7496 425.375C113.703 425.375 145.28 393.895 145.28 355.062C145.28 316.229 113.703 284.75 74.7496 284.75C35.7965 284.75 4.21869 316.229 4.21869 355.062C4.21869 393.895 35.7965 425.375 74.7496 425.375Z" fill="#30475E"/>
<path d="M75 515.147L10.0481 382.076H139.952L75 515.147Z" fill="#30475E"/>
<path d="M108 378H99.5V394H85V378H36V370.1L81.5 324H99.5V371H108V378ZM85 371V337H84L50.5 371H85Z" fill="#F05454"/>
<path d="M354.76 8.79479V38.3139H337.182V8.79479C337.182 3.9433 341.119 0.00585938 345.971 0.00585938C350.822 0.00585938 354.76 3.9433 354.76 8.79479Z" fill="#D1E4FF"/>
<path d="M354.76 8.79479V38.3139H346V0.00585938C350.84 0.0234372 354.76 3.95502 354.76 8.79479Z" fill="#B9D7FF"/>
<path d="M404.774 44.1725V90.2382H284.448V44.1725C284.448 39.321 288.386 35.3835 293.237 35.3835H395.986C400.837 35.3835 404.774 39.3216 404.774 44.1725Z" fill="#F8F8F8"/>
<path d="M404.774 44.1725V90.2382H346V35.3835H395.986C400.837 35.3835 404.774 39.3216 404.774 44.1725Z" fill="#D1E4FF"/>
<path d="M316.733 88.481H258.111C253.257 88.481 249.322 92.4161 249.322 97.27V138.285H316.733V88.481Z" fill="#E94F48"/>
<path d="M442.707 138.285V97.27C442.707 92.4161 438.772 88.481 433.919 88.481H375.326V138.285H442.707Z" fill="#F05454"/>
<path d="M387.044 126.566V173.441H378.982L348.654 158.242C347 157.415 345.06 157.414 343.404 158.242L313.077 173.441H305.014V126.566H387.044Z" fill="#E94F48"/>
<path d="M387.044 126.566V173.441H378.982L348.654 158.242C347.348 157.588 346.272 157.653 346 157.621V126.566H387.044Z" fill="#F05454"/>
<path d="M442.707 161.722V205.38L375.326 171.607V161.722H442.707Z" fill="#F05454"/>
<path d="M310.874 88.481H381.185V132.426H310.874V88.481Z" fill="#F05454"/>
<path d="M346 88.481H381.185V132.426H346V88.481Z" fill="#E94F48"/>
<path d="M381.185 167.581H442.707V132.426H381.185V167.581Z" fill="#E94F48"/>
<path d="M316.733 161.722V171.607L249.322 205.391V161.722H316.733Z" fill="#E94F48"/>
<path d="M324.772 167.581L310.874 174.548V167.581H324.772Z" fill="#F05454"/>
<path d="M381.185 167.581V174.548L367.287 167.581H381.185Z" fill="#E94F48"/>
<path d="M310.874 132.426H249.322V167.581H310.874V132.426Z" fill="#F05454"/>
<path d="M468.693 222.084C468.459 223.467 463.449 252.418 450.125 282.499C436.932 288.777 420.138 284.555 412.116 270.857C409.824 266.958 404.233 267.046 402.009 270.857C390.801 289.952 363.377 290.11 351.783 271.572C351.725 271.472 351.666 271.373 351.619 271.267C349.668 267.15 343.696 266.667 341.266 270.822C329.926 290.202 301.887 290.128 290.589 270.857C288.34 267.018 282.758 266.992 280.481 270.857C272.32 284.762 255.092 288.941 241.775 282.148C228.574 252.189 223.594 223.461 223.365 222.084C222.721 218.276 224.637 214.491 228.094 212.756L342.092 155.623C344.57 154.38 347.488 154.38 349.967 155.623L463.965 212.756C467.422 214.491 469.338 218.276 468.693 222.084Z" fill="#30475E"/>
<path d="M468.693 222.084C468.471 223.397 463.93 249.641 452.03 278.076C451.414 279.546 450.782 281.023 450.125 282.499C436.93 288.775 420.137 284.556 412.116 270.857C409.825 266.961 404.235 267.049 402.009 270.857C390.8 289.952 363.379 290.111 351.783 271.572C351.725 271.472 351.666 271.373 351.619 271.267C350.547 269 348.25 267.834 346 267.945V154.691C347.359 154.685 348.719 154.996 349.967 155.623L463.965 212.756C467.422 214.491 469.338 218.276 468.693 222.084Z" fill="#30475E"/>
<path d="M489.946 281.114C484.069 279.188 479.07 275.263 475.793 270.021C472.826 263.733 463.865 263.182 460.261 269.341C450.063 286.775 424.808 286.715 414.641 269.378C411.963 264.811 407.002 265.018 407.06 265.035C403.943 265.035 401.059 266.686 399.481 269.374C389.474 286.421 364.794 286.846 354.267 270.017C351.297 263.735 342.34 263.182 338.737 269.342C328.539 286.776 303.283 286.715 293.117 269.378C289.72 263.585 281.349 263.595 277.956 269.375C267.95 286.422 243.27 286.847 232.742 270.018C229.765 263.72 220.809 263.195 217.212 269.342C213.859 275.075 208.528 279.306 202.203 281.255C197.564 282.685 194.963 287.604 196.392 292.243C197.822 296.881 202.741 299.482 207.379 298.054C213.965 296.024 219.9 292.515 224.789 287.84C241.824 304.023 268.442 304.071 285.533 287.823C302.572 304.028 329.208 304.073 346.295 287.824C363.304 303.999 389.932 304.104 407.057 287.823C424.056 303.989 450.679 304.111 467.805 287.837C472.51 292.334 478.19 295.76 484.471 297.819C489.084 299.331 494.049 296.817 495.56 292.204C497.072 287.591 494.558 282.625 489.946 281.114Z" fill="#1C9AE8"/>
<path d="M495.558 292.202C494.047 296.814 489.084 299.333 484.472 297.816C478.191 295.759 472.514 292.331 467.809 287.837C450.682 304.109 424.057 303.991 407.06 287.82C389.933 304.103 363.302 303.997 346.299 287.826C346.199 287.919 346.1 288.013 346 288.101V265.015C349.31 264.898 352.662 266.621 354.267 270.019C364.797 286.847 389.476 286.419 399.478 269.375C401.06 266.685 403.942 265.033 407.06 265.033C407.001 265.021 411.964 264.81 414.642 269.381C422.651 283.044 440.03 285.974 452.03 278.076C455.258 275.949 458.1 273.037 460.262 269.34C463.865 263.181 472.824 263.732 475.795 270.019C479.07 275.263 484.068 279.189 489.945 281.117C494.556 282.628 497.07 287.591 495.558 292.202Z" fill="#2275C7"/>
<path d="M615.101 326.782C614.598 325.903 613.869 325.15 612.959 324.621L571.943 300.793C570.123 299.736 567.877 299.736 566.057 300.793C552.843 308.472 525.062 324.603 524.808 324.767C524.007 325.284 523.36 325.98 522.901 326.783L525.454 332.148L569 357.032L611.841 332.551L615.101 326.782Z" fill="#C4A27A"/>
<path d="M615.102 326.781L611.84 332.551L569 357.031V300C570.016 300 571.035 300.266 571.945 300.793C615.053 326.17 613.674 324.291 615.102 326.781Z" fill="#9B7C5D"/>
<path d="M569 353.125L522.901 326.782C522.402 327.654 522.125 328.652 522.125 329.688V376.562C522.125 378.665 523.252 380.607 525.077 381.65L566.093 405.087C567.894 406.116 570.105 406.117 571.907 405.087L612.923 381.65C614.748 380.607 615.875 378.665 615.875 376.562V329.688C615.875 328.658 615.601 327.657 615.101 326.782L569 353.125Z" fill="#9B7C5D"/>
<path d="M615.875 376.562C615.875 378.664 614.75 380.605 612.922 381.648C569.648 406.06 571.837 405.859 569 405.859V353.125L615.102 326.781C616.532 329.285 615.602 327.623 615.875 376.562Z" fill="#7A6047"/>
<path d="M557.362 440.754L538.766 422.355C530.345 414.005 517.365 413.048 507.898 419.468C505.875 420.84 505.617 423.726 507.346 425.455L530.664 448.773C532.703 450.812 532.593 454.149 530.425 456.049C528.443 457.786 525.452 457.682 523.596 455.81L498.688 430.679V373.242C498.688 366.662 493.354 361.328 486.773 361.328C480.193 361.328 474.859 366.662 474.859 373.242V429.583C474.859 436.898 477.79 443.908 482.996 449.046L512.466 478.127V494.141C512.466 497.377 515.089 500 518.325 500H557.281C560.517 500 563.141 497.377 563.141 494.141V454.623C563.141 449.414 561.06 444.421 557.362 440.754Z" fill="#FDBBAB"/>
<path d="M580.638 440.754L599.234 422.355C607.655 414.005 620.635 413.048 630.102 419.468C632.125 420.84 632.383 423.726 630.654 425.455L607.336 448.773C605.297 450.812 605.407 454.149 607.575 456.049C609.557 457.786 612.548 457.682 614.404 455.81L639.312 430.679V373.242C639.312 366.662 644.646 361.328 651.227 361.328C657.807 361.328 663.141 366.662 663.141 373.242V429.583C663.141 436.898 660.21 443.908 655.004 449.046L625.534 478.127V494.141C625.534 497.377 622.911 500 619.675 500H580.719C577.483 500 574.859 497.377 574.859 494.141V454.623C574.859 449.414 576.94 444.421 580.638 440.754Z" fill="#FFA58D"/>
</svg>
