<svg width="360" height="313" viewBox="0 0 360 313" fill="none" xmlns="http://www.w3.org/2000/svg">
<g clip-path="url(#clip0)">
<path d="M27.4775 189.143L27.368 188.824L27.0555 188.554L26.588 188.374L26.036 188.311L25.4845 188.374L25.0165 188.554L24.704 188.824L24.5945 189.143L24.704 189.461L25.0165 189.731L25.4845 189.912L26.036 189.975L26.588 189.912L27.0555 189.731L27.368 189.461L27.4775 189.143ZM27.4775 189.143V194.143V199.143V204.143V207.766V210.696V211.105V212.006L27.85 211.791L28.63 211.341V211.362V214.492V214.538L28.6185 214.545L27.4775 215.204V215.585V220.585V225.585V230.585V235.585V240.585V243.584V245.506V246.514V246.95L27.803 247.137L27.85 247.11L28.25 247.33L28.4095 247.427L28.63 247.561V247.615V250.298V250.751L28.589 250.775L27.4775 251.416V251.798V253.64V258.64V263.64V268.64V269.746V271.447V274.371V274.675V274.989L27.368 275.308L27.1675 275.481L27.1275 275.516L27.0555 275.578L26.588 275.758L26.036 275.821L25.4845 275.758L25.0165 275.578L24.704 275.308L24.5945 274.989V274.053L20.2645 271.553L15.934 269.053L11.604 266.553L8.35799 264.679L4.0275 262.179L3.8165 262.057V261.999V261.985L3.804 261.992L0.75 263.396L5.07999 265.896L5.665 266.234L9.9955 268.734L14.3255 271.234L18.6555 273.734L22.9855 276.234L27.316 278.734L31.646 281.234L35.976 283.734L40.3065 286.234L44.6365 288.734L48.9665 291.234L53.2965 293.734L57.627 296.234L61.957 298.733L66.287 301.233L70.617 303.733L73.894 305.625V310.625V311.301L78.2245 308.801L82.5545 306.301L86.8845 303.801L91.2145 301.301L95.545 298.801L99.875 296.301L104.205 293.801L108.535 291.301L109.552 290.714L113.882 288.214L118.213 285.714L122.543 283.214L126.873 280.714L131.203 278.214L135.533 275.714L139.863 273.214L144.194 270.714L148.523 268.214L153.281 265.467L155.383 260.931L155.699 260.246L160.03 257.746L164.36 255.246L168.69 252.747L169.486 252.287L172.798 254.199L177.128 251.699L181.458 249.199L185.789 246.699L190.118 244.199L194.449 241.699L198.779 239.199L203.109 236.699L207.439 234.199L211.77 231.699L216.527 228.953L220.857 226.453L225.187 223.953L229.517 221.453L233.847 218.953L238.177 216.453L242.508 213.953L246.837 211.453L251.168 208.953L255.498 206.453L258.528 204.704L260.574 200.141L260.643 199.985L264.973 197.485L269.303 194.985L273.634 192.485L274.34 192.078L275.253 191.55L277.368 193.826L281.699 191.326L286.029 188.826L290.359 186.326L294.689 183.826L299.019 181.326L303.35 178.826L307.68 176.326L312.009 173.826L316.34 171.326L320.67 168.826L323.501 167.192L327.831 164.692L332.161 162.192L336.492 159.692L340.822 157.192L345.152 154.692L349.482 152.192L353.812 149.692L358.426 147.028V142.028V141.353L354.096 143.853L353.51 144.19L349.181 146.69L344.85 149.19L340.52 151.69L336.19 154.19L331.86 156.69L327.53 159.19L323.501 161.516L319.171 164.016L314.841 166.516L310.51 169.016L306.181 171.516L301.85 174.016L297.52 176.516L293.19 179.016L288.86 181.516L287.843 182.103L283.513 184.603L279.182 187.103L274.853 189.603L273.367 190.461L272.453 190.988L268.123 193.488L263.793 195.988L259.463 198.488L255.133 200.988L253.613 201.866L252.185 202.69L247.854 205.19L243.525 207.69L239.195 210.19L234.864 212.69L230.534 215.19L226.204 217.69L221.874 220.19L217.544 222.69L216.527 223.277L212.197 225.777L207.867 228.277L203.536 230.777L199.206 233.277L194.876 235.777L190.546 238.277L186.216 240.777L181.885 243.277L180.868 243.864L176.539 246.364L172.208 248.864L168.776 250.846L167.883 251.361L163.553 253.861L159.223 256.361L154.892 258.861L150.562 261.361L148.366 262.63L145.211 264.451L140.88 266.951L136.55 269.451L132.22 271.951L127.89 274.451L123.56 276.951L119.229 279.451L114.899 281.951L110.569 284.451L109.552 285.038L105.222 287.538L100.892 290.038L96.562 292.538L92.2315 295.038L87.9015 297.538L83.5715 300.038L79.2415 302.538L74.911 305.038L73.894 305.625V300.625V299.881V298.932V293.932V288.932V283.932V278.932V273.932V268.932V263.932V258.932V253.932V248.932V243.932V238.932V233.932V228.932V226.842V221.842V218.728V218.707V213.707V208.703V207.252L75.7345 206.189L80.065 203.689L84.395 201.189L88.725 198.689L93.055 196.189L97.3855 193.689L101.715 191.189L105.941 188.75L108.1 187.503L109.552 186.665L113.882 184.165L118.213 181.665L122.543 179.165L126.873 176.665L131.203 174.165L135.533 171.665L139.863 169.165L141.599 168.163L143.758 166.916L145.211 166.078L149.54 163.578L153.87 161.078L158.201 158.578L162.531 156.078L166.861 153.578L171.191 151.078L175.522 148.578L177.258 147.576L179.416 146.329L180.868 145.491L185.199 142.991L189.529 140.491L193.859 137.991L198.189 135.491L202.519 132.991L206.85 130.491L211.18 127.991L212.916 126.989L215.074 125.742L216.527 124.904L220.857 122.404L225.187 119.904L229.517 117.404L233.847 114.904L238.177 112.404L242.508 109.904L246.837 107.404L248.574 106.401L250.733 105.155L252.185 104.317L256.515 101.817L260.845 99.317L265.175 96.817L269.505 94.317L273.836 91.817L278.165 89.317L282.496 86.817L283.214 86.4025L283.499 86.238L285.657 84.992L287.843 83.73L288.143 83.5565L288.336 83.4455L292.666 80.9455L296.996 78.4455L301.326 75.9455L301.485 75.854L301.536 75.824L305.867 73.324L310.197 70.824L314.406 68.394L317.29 66.729L321.62 64.229L323.501 63.143L327.831 60.643L330.796 58.9315L331.576 58.481L331.949 58.266L332.058 58.2025L332.505 57.945L332.933 57.6975L334.832 56.6015L339.161 54.1015L343.492 51.6015L347.822 49.1015L352.152 46.6015L354.292 45.3665L355.195 44.845L358.426 42.9795L356.643 46.468L355.371 47.202L355.359 47.209L354.484 47.7145L354.457 47.7305L353.702 48.166L350.727 49.884L350.25 50.159L345.92 52.659L341.59 55.159L337.259 57.659L335.063 58.927L334.832 59.0605L334.634 59.1745L332.301 60.522L331.949 60.7255L329.385 62.205L325.284 64.573V69.573V74.573V79.573V84.573V89.5345V89.594V92.718V95.6425V100.642V105.642V110.642V115.642V116.956V117.457V118.303V119.051V119.345V122.218V124.966V127.894V132.894V137.894V142.894V147.894V152.894V154.051V158.028L329.614 155.528L333.944 153.028L338.275 150.528L342.604 148.028L346.935 145.528L351.381 142.961L355.711 140.461L356.643 139.923V134.923V129.923V124.923V119.923V114.923V109.923V104.923V99.923V94.923V89.923V84.923V79.923V74.923V69.923V64.923V59.923V54.923V49.923V46.468" stroke="#222831" stroke-width="1.5" stroke-linejoin="round"/>
<path d="M354.484 47.7145V52.7145V57.7145V62.7145V67.7145V72.7145V77.7145V82.7145V87.7145V92.7145V97.7145V102.714V107.714V112.714V117.714V122.714V127.714V132.714V135.161V135.91V136.172V136.935V137.192L356.643 139.923L358.426 141.353V136.353V131.353V126.353V121.353V116.353V111.353V106.353V101.353V96.353V91.353V86.353V81.353V76.353V71.353V66.353V61.353V56.353V51.353V46.353V42.9795L354.096 40.4795L349.766 37.9795L345.436 35.4795L341.105 32.9795L336.775 30.4795L332.445 27.9795L328.115 25.4795L323.785 22.9795L319.454 20.4795L315.125 17.9795L310.794 15.4795L306.464 12.9795L302.134 10.4795L297.804 7.97998L293.474 5.47998L289.143 2.97998L285.281 0.749985L280.952 3.24998L276.621 5.74998L272.292 8.24998L267.961 10.75L263.631 13.25L259.301 15.75L254.971 18.25L250.357 20.914L246.027 23.414L241.697 25.914L237.367 28.4135L233.036 30.9135L228.706 33.4135L224.376 35.9135L220.046 38.4135L215.716 40.9135L214.699 41.501L210.368 44.001L206.039 46.501L201.708 49.001L197.378 51.5005L193.048 54.0005L188.718 56.5005L184.388 59.0005L180.057 61.5005L179.04 62.088L174.711 64.588L170.38 67.088L166.051 69.588L161.72 72.088L157.39 74.5875L153.06 77.0875L148.729 79.5875L144.4 82.0875L143.383 82.675L139.052 85.175L134.723 87.675L130.392 90.175L126.062 92.675L121.732 95.175L117.401 97.6745L113.071 100.174L108.741 102.674L107.724 103.262L103.394 105.762L99.064 108.262L94.734 110.762L90.404 113.262L86.0735 115.762L81.7435 118.261L77.4135 120.761L73.0835 123.261L72.0665 123.849L67.736 126.349L63.406 128.849L59.076 131.349L54.746 133.849L50.4155 136.349L46.0855 138.849L41.7555 141.348L37.425 143.848L36.408 144.436L32.078 146.936L27.748 149.436L23.418 151.936L19.0875 154.436L14.7575 156.936L10.4275 159.436L6.097 161.935L1.767 164.435L0.75 165.023V170.023V175.023V180.023V185.023V190.023V195.023V200.023V205.023V210.023V215.023V220.023V225.023V230.023V235.023V240.023V245.023V250.023V255.023V260.023V263.396V268.396V269.071L5.07999 271.571L9.4105 274.071L13.7405 276.571L18.0705 279.071L22.401 281.571L26.731 284.071L31.061 286.571L35.391 289.071L39.7215 291.571L44.0515 294.071L48.3815 296.571L52.712 299.071L57.042 301.571L61.372 304.071L65.702 306.571L70.0325 309.071L73.894 311.301" stroke="#222831" stroke-width="1.5" stroke-linejoin="round"/>
<path d="M107.769 190.154V195.154V200.158V205.158V207.284V212.284V215.624V216.655V221.655V226.655V231.655V236.655V239.192V244.192V249.192V254.192V259.192V264.192V269.192V274.192V279.192V283.608L105.611 280.878V275.878V270.878V265.878V260.878V255.878V250.878V245.878V240.878V237.945V232.945V227.945V222.945V217.945V215.409V214.378V209.378V208.531V203.531V201.404V200.396V195.396V191.4L105.941 191.209L107.769 190.154" stroke="#222831" stroke-width="1.5" stroke-linejoin="round"/>
<path d="M70.84 209.278V214.278V219.278V220.731V221.479V222.93V227.93V228.605V233.605V238.605V243.605V248.605V253.605V258.605V263.605V268.605V273.605V278.605V283.605V288.605V293.605V294.781V299.71V299.932L70.1795 300.314L70.1295 300.343V299.3V294.3V289.3V284.3V279.3V274.3V273.411V268.411V263.411V258.411V253.411V248.411V243.411V238.411V236.674V231.674V229.016V224.016V221.889V220.881V215.881V210.881V209.616L70.2835 209.527L70.778 209.242L70.84 209.278" stroke="#222831" stroke-width="1.5" stroke-linejoin="round"/>
<path d="M248.243 109.052L248.574 108.861L250.402 107.806V112.806V117.81V122.81V124.936V129.936V134.936V139.936V144.936V149.936V154.936V159.936V164.936V169.936V174.936V177.202V178.257V183.257V188.257V193.257V198.257V200.012V201.26L246.072 203.76L241.742 206.26L237.411 208.76L233.082 211.26L228.751 213.76L224.421 216.26L220.091 218.76L218.31 219.789V215.812L222.639 213.312L226.97 210.812L231.3 208.312L235.63 205.812L239.96 203.312L244.29 200.812L248.039 198.648L248.243 198.53V193.53V188.53V183.53V178.53V177.011V175.956V170.956V165.956V160.956V155.956V150.956V145.956V140.956V135.956V130.956V126.183V121.183V119.056V118.048V113.048V109.052L243.913 111.552L239.583 114.052L235.253 116.552L230.923 119.052L226.592 121.552L222.263 124.052L218.64 126.143L218.31 126.334V131.334V135.33V136.184V137.789V142.789V143.465V148.465V153.465V158.465V158.674V159.729V164.729V169.729V174.729V175.544V180.544V181.484V186.484V191.484V196.484V201.484V206.484V211.484V215.812" stroke="#222831" stroke-width="1.5" stroke-linejoin="round"/>
<path d="M146.993 256.986V255.22V250.22V245.22V240.22V239.301V238.27V233.27V228.27V223.27V218.27V213.27V208.27V203.27V198.27V193.27V188.27V184.639V179.639V178.963V177.358V176.504V171.504V167.508L147.324 167.317L151.654 164.817L155.984 162.317L160.314 159.817L164.645 157.317L168.975 154.817L173.305 152.317L176.927 150.226L177.258 150.035L179.086 148.98V153.98V158.984V163.984V166.11V171.11V176.11V181.11V186.11V191.11V196.11V201.11V206.11V211.11V216.11V221.11V226.11V231.11V236.11V241.11V242.434L176.927 239.704L172.597 242.204L168.267 244.704L163.936 247.204L163.202 247.628L162.309 248.143L157.979 250.643L153.649 253.143L149.319 255.643L146.993 256.986V260.963L151.324 258.463L155.654 255.963L159.984 253.463L164.314 250.963L165.753 250.132L166.646 249.616L170.977 247.116L175.307 244.616L179.086 242.434" stroke="#222831" stroke-width="1.5" stroke-linejoin="round"/>
<path d="M321.718 66.632V71.632V76.632V81.632V86.632V91.632V96.632V101.632V106.632V111.632V116.993V117.286V122.286V122.907V125.835V130.835V135.835V140.835V145.835V150.835V155.835V160.086L317.388 162.586L313.058 165.086L308.728 167.586L304.397 170.086L300.068 172.586L295.737 175.086L291.407 177.586L289.626 178.615V174.638L293.956 172.138L298.286 169.638L302.616 167.138L306.947 164.638L311.277 162.138L315.607 159.638L319.56 157.356V152.356V147.356V142.356V137.356V132.356V127.356V124.589V121.661V116.661V116.04V115.747V113.817V113.651V108.651V103.651V98.6515V93.6515V88.6515V86.2495V86.23V81.23V76.23V71.23V67.878L320.545 67.309L321.718 66.632" stroke="#222831" stroke-width="1.5" stroke-linejoin="round"/>
<path d="M141.269 170.813L141.599 170.622L143.427 169.567V174.567V179.571V184.571V186.697V191.697V196.697V201.697V206.697V211.697V216.697V221.697V226.697V231.697V236.211V237.242V242.242V247.242V252.242V257.242V259.779V263.021L139.097 265.521L134.767 268.021L130.437 270.521L126.107 273.021L121.777 275.521L117.446 278.021L113.116 280.521L111.335 281.55V277.573L115.665 275.073L119.995 272.573L124.325 270.073L128.655 267.573L132.986 265.073L137.316 262.573L141.269 260.291V258.532V253.532V248.532V243.532V238.532V235.996V234.965V229.965V224.965V219.965V214.965V209.965V204.965V199.965V194.965V189.965V187.944V182.944V180.817V179.809V174.809V170.813L136.939 173.313L132.609 175.813L128.278 178.313L123.948 180.813L119.618 183.313L115.288 185.813L111.666 187.904L111.335 188.095V193.095V197.091V197.945V199.55V204.55V205.226V210.226V215.226V217.683V218.714V223.714V228.714V233.714V234.633V239.633V241.25V246.25V251.25V256.25V261.25V266.25V271.25V276.25V277.573" stroke="#222831" stroke-width="1.5" stroke-linejoin="round"/>
<path d="M182.652 240.376V236.399V231.399V226.399V221.399V216.399V211.399V206.399V201.399V196.399V191.399V186.399V181.399V176.399V171.399V166.399V164.052V159.052V158.376V156.771V155.917V150.917V146.921L182.982 146.73L187.312 144.23L191.643 141.73L195.973 139.23L200.302 136.73L204.633 134.23L208.963 131.73L212.586 129.639L212.916 129.448L214.743 128.393V133.393V138.397V143.397V145.523V150.523V155.523V156.615V157.67V162.67V167.67V172.67V177.67V179.425V184.425V189.425V194.425V199.425V204.425V209.425V214.425V219.425V221.847L210.414 224.347L206.083 226.847L201.754 229.347L197.423 231.847L193.093 234.347L188.763 236.847L184.432 239.347L182.652 240.376" stroke="#222831" stroke-width="1.5" stroke-linejoin="round"/>
<path d="M286.06 180.673L281.73 183.173L277.4 185.673L273.07 188.173L271.237 189.231L270.324 189.759L265.993 192.259L261.663 194.759L257.333 197.259L253.967 199.202V196.131V195.225L258.298 192.725L262.628 190.225L266.88 187.77L267.793 187.243L272.123 184.743L276.453 182.243L280.783 179.743L283.902 177.943V172.943V167.943V162.943V157.943V152.943V147.943V142.943V137.943V132.943V127.943V122.943V117.943V112.943V107.943V105.596V101.074V100.28V98.469V98.0165V97.649V92.649V88.465L285.281 87.668L285.657 87.4515L286.06 87.219V92.219V97.219V98.766V99.034V102.32V105.248V110.248V115.248V120.248V125.248V130.248V135.248V140.248V145.248V150.248V155.248V160.248V165.248V170.248V175.248V180.673L283.902 177.943" stroke="#222831" stroke-width="1.5" stroke-linejoin="round"/>
<path d="M73.894 207.252L72.442 206.413L70.2835 205.167L65.9535 202.667L61.623 200.167L57.293 197.667L52.963 195.167L48.6325 192.667L44.3025 190.167L39.9725 187.667L36.7835 185.826L34.6255 184.58L30.295 182.08L25.965 179.58L21.635 177.08L17.3045 174.58L12.9745 172.08L8.92599 169.743L7.08549 168.68L2.7555 166.18L0.75 165.023L2.533 168.264L3.804 170.575V175.575V180.575V185.575V190.575V195.575V200.575V205.575V210.575V215.575V220.575V225.575V230.575V235.575V240.575V245.575V250.575V255.575V259.174V259.767V261.992L3.8165 261.999" stroke="#222831" stroke-width="1.5" stroke-linejoin="round"/>
<path d="M3.80402 170.575L4.46501 170.956L3.81651 171.331V176.331V181.331V186.331V191.331V196.331V198.389V203.389V208.389V213.389V218.389V223.389V228.389V233.389V235.126V240.126V245.126V250.126V255.126V259.166V259.766V261.626V261.985" stroke="#222831" stroke-width="1.5" stroke-linejoin="round"/>
<path d="M107.77 283.608L103.439 286.108L99.109 288.608L94.779 291.108L90.449 293.608L86.1185 296.108L81.7885 298.608L77.4585 301.108L75.677 302.137V298.16V297.903V297.574V292.574V287.574V282.574V277.574V272.574V267.574V262.574V257.574V252.574V247.574V242.574V237.574V232.574V227.574V225.813V220.813V220.137V218.532V217.678V212.678V208.682L75.962 208.517L76.0075 208.491L80.338 205.991L84.668 203.491L88.998 200.991L93.328 198.491L97.6585 195.991L101.989 193.491L105.611 191.4" stroke="#222831" stroke-width="1.5" stroke-linejoin="round"/>
<path d="M214.743 221.847L212.586 219.117V214.117V209.117V204.117V199.117V194.117V189.117V184.117V179.117V178.179V173.179V168.179V163.179V158.179V156.424V155.369V150.369V146.77V141.77V139.643V138.635V133.635V129.639" stroke="#222831" stroke-width="1.5" stroke-linejoin="round"/>
<path d="M212.586 219.117L208.255 221.617L203.925 224.117L199.595 226.617L195.264 229.117L190.935 231.617L186.604 234.117L182.652 236.399" stroke="#222831" stroke-width="1.5" stroke-linejoin="round"/>
<path d="M105.611 280.878L101.281 283.378L96.9505 285.878L92.6205 288.378L88.2905 290.878L83.96 293.378L79.63 295.878L75.677 298.16" stroke="#222831" stroke-width="1.5" stroke-linejoin="round"/>
<path d="M248.243 198.53L248.587 198.964L250.402 201.26" stroke="#222831" stroke-width="1.5" stroke-linejoin="round"/>
<path d="M253.967 195.225V190.225V185.225V180.316V179.261V174.261V169.261V164.261V159.261V154.261V149.261V144.261V139.261V134.261V129.261V124.261V122.878V117.878V117.202V115.597V114.743V109.743V105.747L254.298 105.556L258.629 103.056L262.958 100.556L267.289 98.0565L271.619 95.5565L275.949 93.0565L280.279 90.5565L283.214 88.862L283.499 88.6975L283.902 88.465" stroke="#222831" stroke-width="1.5" stroke-linejoin="round"/>
<path d="M289.626 174.638V169.638V164.638V159.638V154.638V149.638V144.638V139.638V134.638V129.638V124.638V119.638V114.638V109.638V107.307V104.379V101.631V98.7585V98.4645V97.716V92.716V87.716V85.16L290.704 84.5375L290.714 84.532L295.044 82.0325L298.376 80.108L300.91 78.6455L303.615 77.0835L303.667 77.054L307.996 74.554L312.327 72.054L314.406 70.853L317.29 69.1885L317.57 69.0265L319.56 67.878" stroke="#222831" stroke-width="1.5" stroke-linejoin="round"/>
<path d="M176.927 239.704V234.704V229.704V224.704V219.704V214.704V209.704V204.704V199.704V194.704V189.704V184.704V179.704V174.704V169.704V167.357V162.357V160.23V159.222V154.222V150.226" stroke="#222831" stroke-width="1.5" stroke-linejoin="round"/>
<path d="M141.269 260.291L143.428 263.021" stroke="#222831" stroke-width="1.5" stroke-linejoin="round"/>
<path d="M319.56 157.356L321.718 160.086" stroke="#222831" stroke-width="1.5" stroke-linejoin="round"/>
<path d="M285.969 80.5895L285.657 80.4095L285.281 80.1925L284.829 79.9315L285.657 79.454L288.143 78.0185L288.336 77.9075L292.666 75.4075L296.689 73.085L296.741 73.055L301.07 70.555L305.401 68.055L309.73 65.555L314.061 63.0555L314.406 62.8555L315.415 62.273L314.406 61.6905L310.077 59.1905L305.746 56.6905L301.416 54.1905L297.086 51.6905L292.756 49.1905L288.336 46.639L288.143 46.528L285.657 45.0925L283.499 43.846L283.214 43.6815L278.884 41.182L274.553 38.682L270.224 36.182L265.893 33.682L261.563 31.182L257.233 28.682L254.876 27.3215L250.733 29.714L248.574 30.96L244.244 33.46L239.914 35.96L235.583 38.46L231.254 40.96L226.923 43.46L224.29 44.98L222.056 43.6895L220.139 42.583" stroke="#222831" stroke-width="1.5" stroke-linejoin="round"/>
<path d="M250.311 101.176L249.172 100.518L248.574 100.174L244.244 97.674L239.914 95.174L235.583 92.674L231.254 90.174L226.923 87.674L222.593 85.174L218.64 82.8915L216.482 81.6455L215.074 80.833L212.916 79.587L208.586 77.087L204.255 74.587L199.926 72.087L195.596 69.587L191.265 67.087L188.633 65.567L186.397 64.2765L184.481 63.17" stroke="#222831" stroke-width="1.5" stroke-linejoin="round"/>
<path d="M214.652 121.763L213.514 121.106L215.074 120.204L219.405 117.704L223.734 115.204L228.065 112.704L232.395 110.204L236.725 107.704L241.055 105.204L244.099 103.447L246.745 103.235L242.415 100.735L238.085 98.235L233.754 95.735L229.424 93.235L225.094 90.735L220.764 88.235L216.434 85.735L215.074 84.9505L212.916 83.704L208.586 81.204L204.255 78.704L199.926 76.204L195.596 73.7045L191.265 71.2045L186.935 68.7045L182.605 66.2045L180.915 65.2285L183.561 68.4955L179.416 70.888L177.258 72.134L172.927 74.634L168.598 77.134L164.268 79.634L159.937 82.134L155.607 84.634L152.975 86.154L150.74 84.8635L148.823 83.757" stroke="#222831" stroke-width="1.5" stroke-linejoin="round"/>
<path d="M178.994 142.35L177.855 141.693L179.416 140.791L183.746 138.291L188.076 135.791L192.406 133.291L196.737 130.791L201.067 128.291L205.397 125.791L208.441 124.034L204.111 121.534L199.781 119.034L195.45 116.534L191.12 114.034L186.79 111.534L182.46 109.034L179.416 107.277L177.258 106.03L172.927 103.53L168.597 101.03L164.268 98.5305L159.937 96.0305L155.607 93.5305L151.277 91.0305L147.902 89.0825L143.758 91.475L141.599 92.721L137.269 95.221L132.939 97.721L128.609 100.221L124.279 102.721L119.949 105.221L117.316 106.741L115.081 105.45L113.164 104.344" stroke="#222831" stroke-width="1.5" stroke-linejoin="round"/>
<path d="M143.336 162.937L142.197 162.28L143.758 161.378L148.088 158.878L152.419 156.378L156.749 153.878L161.079 151.378L165.409 148.878L169.739 146.378L172.783 144.621L175.428 144.409L171.098 141.909L166.768 139.409L162.438 136.909L158.108 134.409L153.778 131.909L149.448 129.409L145.118 126.909L143.758 126.124L141.6 124.878L137.27 122.378L132.939 119.878L128.609 117.378L124.279 114.878L119.949 112.378L115.619 109.878L111.288 107.378L109.599 106.402L112.244 109.669L108.1 112.062L105.941 113.308L101.612 115.808L97.281 118.308L92.951 120.808L88.621 123.308L84.291 125.808L81.658 127.328L79.423 126.037L77.5065 124.931" stroke="#222831" stroke-width="1.5" stroke-linejoin="round"/>
<path d="M107.678 183.524L106.539 182.867L105.941 182.522L101.612 180.022L97.281 177.522L92.951 175.022L88.621 172.522L84.291 170.022L79.9605 167.522L76.0075 165.239L73.849 163.993L72.442 163.181L70.2835 161.935L65.9535 159.435L61.623 156.935L57.293 154.435L52.963 151.935L48.6325 149.435L46 147.915L43.765 146.624L41.8485 145.518" stroke="#222831" stroke-width="1.5" stroke-linejoin="round"/>
<path d="M72.02 204.111L70.881 203.454L70.2835 203.109L65.9535 200.609L61.623 198.109L57.293 195.609L52.963 193.109L48.6325 190.609L44.3025 188.109L40.3495 185.826L38.191 184.58L36.7835 183.768L34.6255 182.522L30.295 180.022L25.965 177.522L21.635 175.022L17.3045 172.522L12.9745 170.022L10.342 168.502L8.926 167.684L8.86851 167.651L8.107 167.211L6.19 166.105" stroke="#222831" stroke-width="1.5" stroke-linejoin="round"/>
<path d="M35.315 215.221L35.306 212.286V207.286V202.286V197.286V192.286V190.864L35.315 190.869V195.869V200.869V205.869V210.869V215.221ZM35.315 215.221L34.6255 214.823L30.295 212.323L28.63 211.362" stroke="#222831" stroke-width="1.5" stroke-linejoin="round"/>
<path d="M27.1275 275.516L31.4575 278.016L35.7875 280.515L36.973 281.2V280.157V275.157V270.157V265.157V260.157V255.157V254.269V249.269V248.158V243.158V238.158V233.158V228.158V223.158V218.158V217.531V212.531V207.531V202.531V197.531V192.531V190.473L41.303 192.973L45.633 195.473L49.9635 197.973L54.2935 200.473L58.6235 202.973L62.9535 205.473L67.284 207.973L70.1295 209.616" stroke="#222831" stroke-width="1.5" stroke-linejoin="round"/>
<path d="M36.973 281.2L41.303 283.7L42.1365 284.181V285.117L42.246 285.436L42.5585 285.705L43.0265 285.886L43.578 285.95L44.1295 285.886L44.5975 285.705L44.669 285.644L44.709 285.609L44.91 285.436L45.0195 285.117V284.804V284.499V281.575V279.874V274.874V269.874V264.874V261.989V261.607L46.172 260.942V260.926V260.426V257.743V257.69L45.792 257.459L45.392 257.239L45.346 257.266L45.0195 257.077V257.455V258.356V258.738V259.761V260.261V260.706V261.607" stroke="#222831" stroke-width="1.5" stroke-linejoin="round"/>
<path d="M3.8165 171.331L4.71899 171.852L8.92599 174.281L13.256 176.781L17.586 179.281L21.9165 181.781L26.2465 184.281L30.5765 186.781L34.6255 189.118L36.7835 190.364L36.973 190.473L37.6215 190.099L38.191 190.428L40.3495 191.674L44.6795 194.174L49.01 196.674L53.34 199.174L57.67 201.674L62 204.174L66.3305 206.674L70.2835 208.956L70.778 209.242" stroke="#222831" stroke-width="1.5" stroke-linejoin="round"/>
<path d="M41.606 194.501L40.3495 193.776L38.6305 192.784V197.784V202.784V207.784V212.784V217.136L42.1365 219.16V216.229L41.606 215.923V210.923V205.923V200.923V195.923V194.501ZM41.606 194.501L45.936 197.001L50.266 199.501L54.596 202.001L58.9265 204.501L63.2565 207.001L67.5865 209.501L68.4625 210.007V215.007V220.007V221.843V222.851V227.851V229.978V231.429L68.4715 234.364L64.6685 232.168L60.3385 229.668L58.4965 228.605L57.6235 228.101L53.2935 225.601L48.9635 223.101L45.0195 220.824V217.894V212.894V207.894V202.894V199.271M45.0195 199.271L44.91 199.589L44.5975 199.859L44.1295 200.04L43.578 200.103L43.0265 200.04L42.5585 199.859L42.246 199.589L42.1365 199.271L42.246 198.952L42.5585 198.682L43.0265 198.502L43.578 198.438L44.1295 198.502L44.5975 198.682L44.91 198.952L45.0195 199.271Z" stroke="#222831" stroke-width="1.5" stroke-linejoin="round"/>
<path d="M38.6305 256.572L41.606 258.29V263.29V268.29V273.29V278.29V279.604L38.6305 280.81V275.81V270.81V265.81V260.81V256.572Z" stroke="#222831" stroke-width="1.5" stroke-linejoin="round"/>
<path d="M8.4495 260.461L5.474 261.668V261.028V259.217V258.209V253.209V248.209V243.209V238.209V237.43L8.4495 239.147V244.147V249.147V254.147V256.492V257.5V259.311V260.461L12.0565 262.544L16.387 265.044L20.717 267.544L24.5945 269.782V272.707V273.011V273.996V274.053" stroke="#222831" stroke-width="1.5" stroke-linejoin="round"/>
<path d="M38.6305 220.325L40.3495 221.318L41.606 222.043V227.043V232.043V237.043V237.349V238.357V243.357V245.484V250.484V251.741L38.6305 253.389V248.389V247.201V242.201V239.272V239.067V234.067V229.067V224.067V220.325" stroke="#222831" stroke-width="1.5" stroke-linejoin="round"/>
<path d="M5.474 234.246V229.246V224.246V219.246V214.246V209.246V204.246V201.183L8.4495 202.9V207.9V212.9V217.9V222.9V227.9V232.598L5.474 234.246ZM5.474 234.246L8.92599 236.239L13.256 238.739L17.586 241.239L21.9165 243.739L24.5945 245.285V247.17V247.968V248.178V248.469V248.608V249.63V251.798V255.305V260.305V265.305V268.082V269.782" stroke="#222831" stroke-width="1.5" stroke-linejoin="round"/>
<path d="M68.4625 231.429L67.206 230.703L62.876 228.203L61.034 227.14L60.1615 226.636L55.831 224.136L51.501 221.636L47.171 219.136L45.0195 217.894" stroke="#222831" stroke-width="1.5" stroke-linejoin="round"/>
<path d="M41.606 215.923L38.6305 217.136" stroke="#222831" stroke-width="1.5" stroke-linejoin="round"/>
<path d="M5.474 197.993V192.993V187.993V182.993V177.993V173.641L8.4495 175.358V180.358V185.358V190.358V195.358V196.78L5.474 197.993ZM5.474 197.993L8.92599 199.986L13.256 202.486L17.586 204.986L21.9165 207.486L24.5945 209.032V212.162V212.222V212.388V215.585V220.585V225.585V230.585V235.585V240.585V241.919V245.285" stroke="#222831" stroke-width="1.5" stroke-linejoin="round"/>
<path d="M68.4625 210.007L68.4715 210.012V215.012V220.012V221.838V222.846V227.846V229.973V234.364" stroke="#222831" stroke-width="1.5" stroke-linejoin="round"/>
<path d="M5.474 261.668L9.52399 264.006L13.854 266.506L18.1845 269.006L22.5145 271.506L24.5945 272.707" stroke="#222831" stroke-width="1.5" stroke-linejoin="round"/>
<path d="M35.306 254.653L35.315 254.658V259.658V264.658V269.658V274.658V278.896L35.306 275.967V270.967V265.967V260.967V255.967V254.653L30.976 252.153L30.515 251.887L28.589 250.775" stroke="#222831" stroke-width="1.5" stroke-linejoin="round"/>
<path d="M35.306 275.967L30.976 273.467L27.4775 271.447" stroke="#222831" stroke-width="1.5" stroke-linejoin="round"/>
<path d="M45.0195 220.824V221.294V222.195L45.392 221.98L46.172 221.53V224.62V224.669L46.163 224.674L50.4935 227.174L54.8615 229.696L55.734 230.2L56.991 230.926L61.3215 233.426L61.906 233.763L66.2365 236.263L68.4625 237.549V242.549V247.549V252.549V257.549V262.549V267.246L68.4715 270.617L64.1415 268.117L59.811 265.617L55.481 263.117L51.151 260.617L46.821 258.117L46.172 257.743" stroke="#222831" stroke-width="1.5" stroke-linejoin="round"/>
<path d="M68.4625 237.549L68.4715 237.554V242.554V247.554V252.554V257.554V262.554V267.554V270.617" stroke="#222831" stroke-width="1.5" stroke-linejoin="round"/>
<path d="M35.315 251.475L35.309 249.119L35.306 248.104V243.104V241.994V236.994V231.994V226.994V221.994V218.406L35.315 218.411V223.411V228.411V233.411V238.411V241.989V246.989V249.116V251.475L33.272 250.295L28.942 247.795L28.63 247.615" stroke="#222831" stroke-width="1.5" stroke-linejoin="round"/>
<path d="M68.4715 298.039L68.4625 295.11V290.11V285.11V280.11V275.11V273.796L68.4715 273.801V278.801V283.801V288.801V293.801V298.039ZM68.4715 298.039L64.1415 295.539L59.811 293.039L55.481 290.539L51.151 288.039L46.821 285.539L45.0195 284.499" stroke="#222831" stroke-width="1.5" stroke-linejoin="round"/>
<path d="M8.44949 196.78L8.92599 197.056L13.256 199.556L17.586 202.056L21.9165 204.556L24.5945 206.102V209.032" stroke="#222831" stroke-width="1.5" stroke-linejoin="round"/>
<path d="M41.606 251.741L42.1365 252.047V255.413L38.6305 253.389" stroke="#222831" stroke-width="1.5" stroke-linejoin="round"/>
<path d="M8.44949 232.598L8.92599 232.873L13.256 235.373L17.586 237.873L21.9165 240.373L24.5945 241.919" stroke="#222831" stroke-width="1.5" stroke-linejoin="round"/>
<path d="M41.606 279.604L42.1365 279.91V282.834L38.6305 280.811" stroke="#222831" stroke-width="1.5" stroke-linejoin="round"/>
<path d="M354.484 137.192L350.155 139.692L347.937 140.972L343.607 143.472L339.277 145.972L334.947 148.472L330.617 150.972L326.286 153.472L325.284 154.051" stroke="#222831" stroke-width="1.5" stroke-linejoin="round"/>
<path d="M169.486 252.287L170.379 251.771L172.798 254.199" stroke="#222831" stroke-width="1.5" stroke-linejoin="round"/>
<path d="M112.244 109.669L116.574 112.169L120.904 114.669L125.234 117.169L129.564 119.669L133.895 122.169L138.225 124.669L141.599 126.617L143.758 127.864L148.088 130.364L152.418 132.864L156.748 135.364L161.078 137.863L165.408 140.363L169.739 142.863L172.783 144.621" stroke="#222831" stroke-width="1.5" stroke-linejoin="round"/>
<path d="M38.2825 147.576L42.6125 150.076L46.943 152.576L51.273 155.076L55.603 157.576L59.933 160.076L64.2635 162.576L68.5935 165.076L70.2835 166.052L72.442 167.298L76.772 169.798L81.102 172.298L85.432 174.798L89.7625 177.298L94.0925 179.798L98.4225 182.298L102.753 184.798L104.112 185.583L101.467 185.795L97.1365 183.295L92.8065 180.795L88.4765 178.295L84.146 175.795L79.816 173.295L75.486 170.795L72.442 169.038L70.2835 167.791L65.9535 165.291L61.623 162.791L57.293 160.291L52.963 157.792L48.6325 155.292L44.3025 152.792L40.928 150.843L38.2825 147.576Z" stroke="#222831" stroke-width="1.5" stroke-linejoin="round"/>
<path d="M188.633 65.567L192.962 63.067L197.293 60.567L201.623 58.067L205.953 55.567L210.284 53.067L212.916 51.547L215.074 50.301L219.219 47.9085L216.573 44.6415L220.903 47.1415L225.233 49.6415L229.564 52.1415L233.893 54.6415L238.224 57.1415L242.554 59.6415L246.884 62.1415L248.574 63.117L250.733 64.3635L255.062 66.8635L259.393 69.3635L263.723 71.8635L268.053 74.3635L272.383 76.863L276.714 79.363L281.044 81.863L282.402 82.648L279.758 82.86L275.427 85.36L271.097 87.86L266.767 90.36L262.437 92.86L258.107 95.36L253.777 97.86L250.733 99.6175L249.172 100.518" stroke="#222831" stroke-width="1.5" stroke-linejoin="round"/>
<path d="M76.586 130.256L73.9405 126.989L78.271 129.489L82.601 131.989L86.931 134.489L91.261 136.989L95.5915 139.489L99.9215 141.989L104.252 144.489L105.941 145.465L108.1 146.711L112.43 149.211L116.76 151.711L121.09 154.211L125.421 156.711L129.751 159.211L134.081 161.711L138.411 164.211L139.771 164.996L137.125 165.208L132.795 162.708L128.465 160.208L124.135 157.708L119.805 155.208L115.474 152.708L111.144 150.208L108.1 148.451L105.941 147.204L101.612 144.704L97.281 142.204L92.951 139.704L88.621 137.205L84.291 134.705L79.9605 132.205L76.586 130.256ZM76.586 130.256L72.442 132.649L70.2835 133.895L65.9535 136.395L61.623 138.895L57.293 141.395L52.963 143.895L48.6325 146.395L46 147.915" stroke="#222831" stroke-width="1.5" stroke-linejoin="round"/>
<path d="M137.125 165.208L132.795 167.708L128.465 170.208L124.135 172.708L119.805 175.208L115.474 177.708L111.144 180.208L108.1 181.965L106.539 182.867" stroke="#222831" stroke-width="1.5" stroke-linejoin="round"/>
<path d="M147.902 89.0825L145.257 85.8155L149.587 88.3155L153.917 90.8155L158.247 93.3155L162.577 95.8155L166.907 98.3155L171.238 100.815L175.568 103.315L177.258 104.291L179.416 105.537L183.746 108.037L188.076 110.537L192.406 113.037L196.737 115.537L201.067 118.037L205.397 120.537L209.727 123.037L211.087 123.822L208.441 124.034" stroke="#222831" stroke-width="1.5" stroke-linejoin="round"/>
<path d="M219.219 47.9085L223.548 50.4085L227.879 52.9085L232.209 55.4085L236.539 57.9085L240.869 60.4085L245.199 62.908L248.574 64.8565L250.733 66.103L255.062 68.6025L259.393 71.1025L263.723 73.6025L268.053 76.1025L272.383 78.6025L276.714 81.1025L279.758 82.86" stroke="#222831" stroke-width="1.5" stroke-linejoin="round"/>
<path d="M101.467 185.795L97.1365 188.295L92.8065 190.795L88.4765 193.295L84.146 195.795L79.816 198.295L75.486 200.795L72.442 202.552L70.9385 203.42L70.881 203.454" stroke="#222831" stroke-width="1.5" stroke-linejoin="round"/>
<path d="M254.876 27.3215L252.231 24.0545L256.561 26.5545L260.892 29.0545L265.221 31.5545L269.552 34.0545L273.882 36.5545L278.212 39.0545L282.542 41.5545L283.214 41.9425L283.499 42.107L285.657 43.353L288.143 44.7885L288.336 44.8995L292.666 47.3995L296.996 49.8995L301.326 52.3995L305.656 54.8995L309.987 57.399L314.406 59.951L317.29 61.616L318.061 62.061L317.29 62.123L315.415 62.273" stroke="#222831" stroke-width="1.5" stroke-linejoin="round"/>
<path d="M350.377 42.0885L346.047 39.5885L341.716 37.0885L337.387 34.5885L334.832 33.1135L332.141 31.5595L327.811 29.0595L323.48 26.56L319.15 24.06L317.29 22.9855L314.599 21.432L310.268 18.932L305.939 16.432L301.608 13.932L297.278 11.432L292.948 8.93198L289.838 7.13648L289.801 7.09048L287.193 3.86998L291.523 6.36998L295.853 8.86998L300.183 11.37L304.513 13.8695L308.844 16.3695L313.173 18.8695L317.504 21.3695L321.834 23.8695L326.164 26.3695L330.494 28.8695L334.824 31.3695L339.155 33.8695L343.484 36.3695L347.815 38.8695L352.145 41.3695L353.022 41.876L350.415 42.0855L350.377 42.0885L349.496 42.5975L345.165 45.0975L340.835 47.597L336.505 50.097L334.832 51.0635L331.949 52.728L328.137 54.9285L327.708 55.176L323.378 57.676L320.451 59.366L320.545 59.42L321.59 60.0235" stroke="#222831" stroke-width="1.5" stroke-linejoin="round"/>
<path d="M40.928 150.843L36.7835 153.236L34.6255 154.482L30.295 156.982L25.965 159.482L21.635 161.982L17.3045 164.482L12.9745 166.982L10.3995 168.469L10.342 168.502" stroke="#222831" stroke-width="1.5" stroke-linejoin="round"/>
<path d="M244.099 103.447L239.769 100.947L235.439 98.447L231.109 95.947L226.779 93.4475L222.449 90.9475L218.118 88.4475L215.074 86.69L212.916 85.4435L208.586 82.9435L204.255 80.4435L199.926 77.9435L195.596 75.4435L191.265 72.9435L186.935 70.4435L183.561 68.4955" stroke="#222831" stroke-width="1.5" stroke-linejoin="round"/>
<path d="M289.838 7.13648L288.957 7.64548L288.336 8.00398L288.143 8.11498L285.657 9.55048L283.499 10.7965L283.214 10.961L278.884 13.461L274.553 15.961L270.224 18.461L265.893 20.961L261.563 23.461L259.912 24.414L257.677 23.1235L255.76 22.017" stroke="#222831" stroke-width="1.5" stroke-linejoin="round"/>
<path d="M42.1365 255.413V258.096V258.596V258.737V261.988V266.988V271.988V276.988V278.209V279.91" stroke="#222831" stroke-width="1.5" stroke-linejoin="round"/>
<path d="M27.4775 215.204V214.303V213.886V213.827V212.388V212.006" stroke="#222831" stroke-width="1.5" stroke-linejoin="round"/>
<path d="M24.5945 189.143V194.143V199.143V204.143V206.102" stroke="#222831" stroke-width="1.5" stroke-linejoin="round"/>
<path d="M46.163 224.674L45.0195 225.334V224.434V224.014V223.955V222.577V222.195" stroke="#222831" stroke-width="1.5" stroke-linejoin="round"/>
<path d="M42.1365 199.271V204.271V209.271V214.271V216.229" stroke="#222831" stroke-width="1.5" stroke-linejoin="round"/>
<path d="M28.63 211.341L28.25 211.11L27.85 210.89L27.8315 210.901L27.4775 210.696" stroke="#222831" stroke-width="1.5" stroke-linejoin="round"/>
<path d="M45.0195 257.077V253.712V248.712V243.712V243.513V238.513V237.837V236.386V235.378V230.378V225.716V225.334" stroke="#222831" stroke-width="1.5" stroke-linejoin="round"/>
<path d="M42.1365 219.16V222.29V222.349V222.577V225.716V230.716V235.716V237.043V238.051V239.502V244.502V245.177V250.177V252.047" stroke="#222831" stroke-width="1.5" stroke-linejoin="round"/>
<path d="M28.63 247.561L27.85 248.011L27.4775 248.226V247.965V247.325V246.95" stroke="#222831" stroke-width="1.5" stroke-linejoin="round"/>
<path d="M46.172 257.69L45.392 258.14L45.0195 258.356" stroke="#222831" stroke-width="1.5" stroke-linejoin="round"/>
<path d="M27.4775 251.416V250.515V250.133V249.633V248.608V248.226" stroke="#222831" stroke-width="1.5" stroke-linejoin="round"/>
<path d="M46.172 221.53L45.792 221.299L45.392 221.079L45.0195 221.294" stroke="#222831" stroke-width="1.5" stroke-linejoin="round"/>
<path d="M27.803 247.137L27.4775 247.325" stroke="#222831" stroke-width="1.5" stroke-linejoin="round"/>
<path d="M27.8315 210.901L27.4775 211.105" stroke="#222831" stroke-width="1.5" stroke-linejoin="round"/>
<path d="M27.4775 243.584L29.142 244.545L30.015 245.049L34.345 247.549L35.306 248.104" stroke="#222831" stroke-width="1.5" stroke-linejoin="round"/>
<path d="M27.4775 207.766L31.808 210.266L34.6255 211.893L35.306 212.286" stroke="#222831" stroke-width="1.5" stroke-linejoin="round"/>
<path d="M27.4775 274.372L31.808 276.872L35.315 278.896" stroke="#222831" stroke-width="1.5" stroke-linejoin="round"/>
<path d="M8.44949 239.147L8.92599 239.422L13.256 241.922L17.586 244.422L21.9165 246.922L23.47 247.819L24.343 248.323L24.5945 248.469" stroke="#222831" stroke-width="1.5" stroke-linejoin="round"/>
<path d="M28.6185 214.545L32.9485 217.045L34.6255 218.013L35.306 218.406" stroke="#222831" stroke-width="1.5" stroke-linejoin="round"/>
<path d="M8.44949 202.9L8.92599 203.175L13.256 205.675L17.586 208.175L21.9165 210.675L24.5945 212.222" stroke="#222831" stroke-width="1.5" stroke-linejoin="round"/>
<path d="M8.44949 175.358L8.92599 175.634L13.256 178.134L17.586 180.634L21.9165 183.134L26.2465 185.634L30.5765 188.134L34.6255 190.471L35.306 190.864" stroke="#222831" stroke-width="1.5" stroke-linejoin="round"/>
<path d="M42.1365 282.834V283.139V284.123V284.181" stroke="#222831" stroke-width="1.5" stroke-linejoin="round"/>
<path d="M45.346 257.266L45.0195 257.454" stroke="#222831" stroke-width="1.5" stroke-linejoin="round"/>
<path d="M45.0195 281.575L49.35 284.075L53.68 286.575L58.01 289.075L62.34 291.575L66.6705 294.075L68.4625 295.11" stroke="#222831" stroke-width="1.5" stroke-linejoin="round"/>
<path d="M45.0195 253.712L49.35 256.212L53.68 258.712L58.01 261.212L62.34 263.712L66.6705 266.212L68.4625 267.246" stroke="#222831" stroke-width="1.5" stroke-linejoin="round"/>
<path d="M46.172 260.926L50.502 263.426L54.8325 265.926L59.1625 268.426L63.4925 270.926L67.823 273.426L68.4625 273.796" stroke="#222831" stroke-width="1.5" stroke-linejoin="round"/>
<path d="M41.606 258.29L42.1365 258.596" stroke="#222831" stroke-width="1.5" stroke-linejoin="round"/>
<path d="M41.606 222.043L42.1365 222.349" stroke="#222831" stroke-width="1.5" stroke-linejoin="round"/>
<path d="M44.669 285.643L48.9995 288.143L53.3295 290.643L57.6595 293.143L61.9895 295.643L66.32 298.143L70.1295 300.343" stroke="#222831" stroke-width="1.5" stroke-linejoin="round"/>
<path d="M4.465 170.956L4.6915 171.087L4.71899 171.103L8.92599 173.532L13.256 176.032L17.586 178.532L21.9165 181.032L26.2465 183.532L30.5765 186.032L34.6255 188.369L36.7835 189.615L37.6215 190.099" stroke="#222831" stroke-width="1.5" stroke-linejoin="round"/>
<path d="M70.84 299.932V300.695L70.1795 300.314" stroke="#222831" stroke-width="1.5" stroke-linejoin="round"/>
<path d="M142.197 162.28L141.599 161.935L137.269 159.435L132.939 156.935L128.609 154.435L124.279 151.935L119.949 149.435L115.619 146.935L111.666 144.652L109.507 143.406L108.1 142.594L105.941 141.348L101.611 138.848L97.281 136.348L92.951 133.848L88.621 131.348L84.291 128.848L81.658 127.328" stroke="#222831" stroke-width="1.5" stroke-linejoin="round"/>
<path d="M177.855 141.693L177.258 141.348L172.927 138.848L168.598 136.348L164.268 133.848L159.937 131.348L155.607 128.848L151.277 126.348L147.324 124.065L145.166 122.819L143.758 122.007L141.6 120.761L137.27 118.261L132.939 115.761L128.609 113.261L124.279 110.761L119.949 108.261L117.316 106.741" stroke="#222831" stroke-width="1.5" stroke-linejoin="round"/>
<path d="M213.514 121.106L212.916 120.761L208.585 118.261L204.255 115.761L199.925 113.261L195.596 110.761L191.265 108.261L186.935 105.761L182.982 103.478L180.824 102.232L179.416 101.42L177.258 100.174L172.927 97.674L168.597 95.174L164.268 92.674L159.937 90.174L155.607 87.674L152.974 86.154" stroke="#222831" stroke-width="1.5" stroke-linejoin="round"/>
<path d="M274.34 192.078L277.368 193.826" stroke="#222831" stroke-width="1.5" stroke-linejoin="round"/>
<path d="M284.829 79.9315L283.499 79.1635L283.214 78.999L278.884 76.499L274.553 73.999L270.224 71.499L265.893 68.999L261.563 66.499L257.233 63.999L254.298 62.3045L252.14 61.0585L250.733 60.246L248.574 59L244.244 56.5L239.914 54L235.583 51.5L231.254 49L226.923 46.5L224.29 44.98" stroke="#222831" stroke-width="1.5" stroke-linejoin="round"/>
<path d="M320.451 59.366L317.57 57.7025L317.29 57.5405L314.406 55.876L310.077 53.376L305.746 50.876L301.416 48.376L297.086 45.876L292.756 43.376L290.714 42.197L290.704 42.192L289.047 41.2345L288.336 40.8245L288.143 40.7135L285.657 39.278L285.281 39.061L283.499 38.0315L283.214 37.8675L278.884 35.3675L274.553 32.8675L270.224 30.3675L265.893 27.8675L261.563 25.3675L259.912 24.414" stroke="#222831" stroke-width="1.5" stroke-linejoin="round"/>
<path d="M12 168.5L41 151.5L100.5 185.5L71 202.5L12 168.5Z" fill="#F05454" stroke="#F05454"/>
<path d="M47 148L76 131L135.5 165L106 182L47 148Z" fill="#F05454" stroke="#F05454"/>
<path d="M83 127L112 110L171.5 144L142 161L83 127Z" fill="#F05454" stroke="#F05454"/>
<path d="M118 107L147 90L206.5 124L177 141L118 107Z" fill="#F05454" stroke="#F05454"/>
<path d="M154 86L183 69L242.5 103L213 120L154 86Z" fill="#F05454" stroke="#F05454"/>
<path d="M190 65L219 48L278.5 82L249 99L190 65Z" fill="#2A395A" stroke="#2A395A"/>
<path d="M226 45L255 28L314.5 62L285 79L226 45Z" fill="#2A395A" stroke="#2A395A"/>
<path d="M261 24L290 7L349.5 41L320 58L261 24Z" fill="#2A395A" stroke="#2A395A"/>
<path d="M112 188.5L140.5 172V260L112 276.5V188.5Z" fill="#F05454"/>
<path d="M148 167.5L176.5 151V239L148 255.5V167.5Z" fill="#F05454"/>
<path d="M183 147.5L211.5 131V219L183 235.5V147.5Z" fill="#F05454"/>
<path d="M219 126.5L247.5 110V198L219 214.5V126.5Z" fill="#F05454"/>
<path d="M255 105.5L283.5 89V177L255 193.5V105.5Z" fill="#2A395A"/>
<path d="M290 85.5L318.5 69V157L290 173.5V85.5Z" fill="#2A395A"/>
<path d="M326 64.5L354.5 48V136L326 152.5V64.5Z" fill="#2A395A"/>
<path d="M76 209.5L104.5 193V281L76 297.5V209.5Z" fill="#F05454"/>
</g>
<defs>
<clipPath id="clip0">
<rect width="359.176" height="312.051" fill="white"/>
</clipPath>
</defs>
</svg>
