<?xml version="1.0"?>
<svg xmlns="http://www.w3.org/2000/svg" xmlns:xlink="http://www.w3.org/1999/xlink" xmlns:svgjs="http://svgjs.com/svgjs" version="1.1" width="512" height="512" x="0" y="0" viewBox="0 0 512.008 512.008" style="enable-background:new 0 0 512 512" xml:space="preserve" class=""><g><g xmlns="http://www.w3.org/2000/svg"><path d="m501.675 479.776c-10.029-3.287-18.562-9.986-24.154-18.933-5.064-10.732-20.358-11.672-26.508-1.16-3.517 6.013-8.345 11.031-13.997 14.777 20.263-48.485 28.009-93.195 28.388-95.43 1.102-6.503-2.172-12.962-8.068-15.917l-36.282-18.185v-178.918c0-8.284-6.716-15-15-15h-49.742v-75.619c0-8.284-6.716-15-15-15h-70.357v-45.381c0-8.284-6.716-15-15-15s-15 6.716-15 15v45.381h-75c-8.284 0-15 6.716-15 15v75.619h-44.95c-8.284 0-15 6.716-15 15v119.014c-.021.327-.05.653-.05.986s.028.659.05.986v57.958l-36.232 18.159c-5.896 2.955-9.17 9.414-8.068 15.917.377 2.223 8.027 46.395 28.011 94.532-4.739-3.382-8.849-7.676-12.007-12.725-5.081-10.749-20.367-11.644-26.505-1.153-5.723 9.783-14.821 17.004-25.617 20.331-7.917 2.44-12.356 10.836-9.917 18.753 2.44 7.916 10.836 12.355 18.752 9.917 11.239-3.464 21.369-9.453 29.713-17.431 29.074 27.619 74.503 27.701 103.671-.029 29.081 27.656 74.541 27.733 103.703.001 29.029 27.606 74.475 27.785 103.702-.001 29.012 27.59 74.449 27.798 103.678.024 8.03 7.674 17.723 13.522 28.444 17.035 7.873 2.581 16.346-1.71 18.925-9.583 2.58-7.872-1.711-16.346-9.583-18.925zm-168.249-178.766h57.628v28.883zm-72.486-36.17c-4.006-1.383-8.219-.937-11.608.76l-38.279 19.185v-43.775h90v43.775c-40.381-20.221-38.612-19.428-40.113-19.945zm-139.936-23.83h60.05v30h-60.05zm180.05-60v30h-90v-30zm90 90h-60v-30h60zm0-60h-60v-30h60zm-210.1-120.619h145.357v60.619h-145.357zm.1 90.619v30h-60.05v-30zm-60.05 120h57.678l-57.678 28.908zm44.745 158.735c-5.801-9.89-20.095-9.853-25.875-.006-6.357 10.831-16.978 18.405-28.997 21.135-18.345-37.824-28.367-77.499-32.422-96.073l162.6-81.495v160.223c-19.378 26.419-59.089 23.872-75.306-3.784zm207.405 0c-5.8-9.89-20.122-9.807-25.875-.006-8.063 13.737-22.975 22.271-38.915 22.271-14.955 0-28.979-7.515-37.31-19.772v-158.932l162.6 81.495c-4.049 18.547-14.045 58.116-32.329 95.881-11.685-2.882-21.966-10.355-28.171-20.937z" fill="#f05454" data-original="#000000" style="" class=""/></g></g></svg>
