<?xml version="1.0"?>
<svg xmlns="http://www.w3.org/2000/svg" xmlns:xlink="http://www.w3.org/1999/xlink" xmlns:svgjs="http://svgjs.com/svgjs" version="1.1" width="512" height="512" x="0" y="0" viewBox="0 0 512.002 512.002" style="enable-background:new 0 0 512 512" xml:space="preserve" class=""><g><g xmlns="http://www.w3.org/2000/svg"><path d="m495.453 495.292c-6.968-60.79-48.697-109.882-103.982-128.371v-126.483h44.98c8.284 0 15-6.716 15-15v-89.438c0-8.284-6.716-15-15-15h-45.731c-7.148-67.904-64.743-121-134.509-121s-127.361 53.096-134.508 121h-45.252c-8.284 0-15 6.716-15 15v122.6c0 22.69 18.46 41.15 41.149 41.15h18.351v67.072c-55.03 18.302-96.853 66.971-104.252 127.244l-.137 1.105c-1.097 8.941 5.876 16.83 14.907 16.83 7.469-.001 13.937-5.572 14.869-13.174l.137-1.105c7.609-61.982 60.439-108.722 122.887-108.722h27.14v.75c0 33.084 26.916 60 60 60s60-26.916 60-60v-.75h26.145c62.953 0 115.833 47.164 123.003 109.708.877 7.65 7.364 13.293 14.884 13.293 8.968 0 15.941-7.796 14.919-16.709zm-198.926-173.41c-.417.147-.826.308-1.225.49-37.948 15.077-82.062 6.811-112.209-22.622h88.408c8.284 0 15-6.716 15-15s-6.716-15-15-15c-.101 0-120.449-.122-120.55-.112.001-.101.05-96.646.05-96.759 0-26.054 19.398-47.787 44.177-52.278 17.743 35.803 54.676 59.149 95.235 59.149h71.058v44.97c.03 44.779-27.698 81.812-64.944 97.162zm124.924-111.444h-29.98v-59.438h29.98zm-165.24-180.438c56.722 0 105.24 45.584 105.24 106 0 .102.019 13.647.02 13.75h-71.058c-31.919 0-60.709-20.148-71.641-50.138-2.158-5.922-7.79-9.862-14.093-9.862-18.603 0-35.797 6.143-49.663 16.505 12.626-43.98 53.212-76.255 101.195-76.255zm-164.76 121h29.5v60h-29.5zm11.15 118.75c-6.147 0-11.149-5.002-11.149-11.15v-17.6h29.5v28.75zm48.35 90.355v-51.259c12.402 15.528 28.006 28.036 45.55 36.761v13.393c-22.932.219-31.181-.622-45.55 1.105zm105.55 59.645c-16.542 0-30-13.458-30-30v-33.415c19.989 4.587 40.506 4.489 60 .088v33.327c0 16.542-13.458 30-30 30zm60-60.75v-13.246c16.707-8.305 32.212-20.391 44.97-36.112v50.508c-14.574-1.782-22.645-.923-44.97-1.15z" fill="#f05454" data-original="#000000" style="" class=""/><path d="m136.551 452c-8.284 0-15 6.716-15 15v30c0 8.284 6.716 15 15 15s15-6.716 15-15v-30c0-8.284-6.716-15-15-15z" fill="#f05454" data-original="#000000" style="" class=""/><path d="m375.951 452c-8.284 0-15 6.716-15 15v30c0 8.284 6.716 15 15 15s15-6.716 15-15v-30c0-8.284-6.715-15-15-15z" fill="#f05454" data-original="#000000" style="" class=""/></g></g></svg>
