<?xml version="1.0"?>
<svg xmlns="http://www.w3.org/2000/svg" xmlns:xlink="http://www.w3.org/1999/xlink" xmlns:svgjs="http://svgjs.com/svgjs" version="1.1" width="512" height="512" x="0" y="0" viewBox="0 0 512 512" style="enable-background:new 0 0 512 512" xml:space="preserve" class=""><g><g xmlns="http://www.w3.org/2000/svg"><path d="m497 61h-46v-15c0-8.284-6.716-15-15-15s-15 6.716-15 15v15h-30v-15c0-8.284-6.716-15-15-15s-15 6.716-15 15v15h-60v-15c0-8.284-6.716-15-15-15s-15 6.716-15 15v15h-30v-15c0-8.284-6.716-15-15-15s-15 6.716-15 15v15h-60v-15c0-8.284-6.716-15-15-15s-15 6.716-15 15v15h-30v-15c0-8.284-6.716-15-15-15s-15 6.716-15 15v15h-46c-8.284 0-15 6.716-15 15v390c0 8.284 6.716 15 15 15h482c8.284 0 15-6.716 15-15v-390c0-8.284-6.716-15-15-15zm-15 390h-452v-360h31v15c0 8.284 6.716 15 15 15s15-6.716 15-15v-15h30v15c0 8.284 6.716 15 15 15s15-6.716 15-15v-15h60v15c0 8.284 6.716 15 15 15s15-6.716 15-15v-15h30v15c0 8.284 6.716 15 15 15s15-6.716 15-15v-15h60v15c0 8.284 6.716 15 15 15s15-6.716 15-15v-15h30v15c0 8.284 6.716 15 15 15s15-6.716 15-15v-15h31z" fill="#f05454" data-original="#000000" style="" class=""/><path d="m436 151h-360c-8.284 0-15 6.716-15 15v240c0 8.284 6.716 15 15 15h360c8.284 0 15-6.716 15-15v-240c0-8.284-6.716-15-15-15zm-105 120h-60v-30h60zm30-30h60v30h-60zm-90-30v-30h60v30zm-30 0h-60v-30h60zm0 30v30h-60v-30zm-90 30h-60v-30h60zm-60 30h60v30h-60zm90 0h60v30h-60zm60 60v30h-60v-30zm30 0h60v30h-60zm0-30v-30h60v30zm90-30h60v30h-60zm60-90h-60v-30h60zm-270-30v30h-60v-30zm-60 180h60v30h-60zm270 30v-30h60v30z" fill="#f05454" data-original="#000000" style="" class=""/></g></g></svg>
