<?xml version="1.0"?>
<svg xmlns="http://www.w3.org/2000/svg" xmlns:xlink="http://www.w3.org/1999/xlink" xmlns:svgjs="http://svgjs.com/svgjs" version="1.1" width="512" height="512" x="0" y="0" viewBox="0 0 512 512" style="enable-background:new 0 0 512 512" xml:space="preserve" class=""><g><g xmlns="http://www.w3.org/2000/svg"><path d="m105.919 278.65c8.284 0 15-6.716 15-15v-113.45c0-8.284-6.716-15-15-15s-15 6.716-15 15v113.45c0 8.285 6.716 15 15 15z" fill="#f05454" data-original="#000000" style="" class=""/><path d="m180.834 278.65c8.284 0 15-6.716 15-15v-113.45c0-8.284-6.716-15-15-15s-15 6.716-15 15v113.45c0 8.285 6.716 15 15 15z" fill="#f05454" data-original="#000000" style="" class=""/><path d="m255.95 278.65c8.284 0 15-6.716 15-15v-113.45c0-8.284-6.716-15-15-15s-15 6.716-15 15v113.45c0 8.285 6.716 15 15 15z" fill="#f05454" data-original="#000000" style="" class=""/><path d="m331.065 278.65c8.284 0 15-6.716 15-15v-113.45c0-8.284-6.716-15-15-15s-15 6.716-15 15v113.45c0 8.285 6.716 15 15 15z" fill="#f05454" data-original="#000000" style="" class=""/><path d="m406.068 278.65c8.284 0 15-6.716 15-15v-113.45c0-8.284-6.716-15-15-15s-15 6.716-15 15v113.45c0 8.285 6.716 15 15 15z" fill="#f05454" data-original="#000000" style="" class=""/><path d="m497.096 309.705v-196.505c0-24.813-20.189-45-45.006-45h-392.017c-24.808 0-44.998 20.18-45.007 44.982l-.083 196.518c-8.276.01-14.983 6.721-14.983 15v59.5c0 8.284 6.716 15 15 15h15.944c.27 24.638 20.39 44.6 45.096 44.6 24.704 0 44.824-19.962 45.095-44.6h14.787c.27 24.638 20.39 44.6 45.096 44.6 24.704 0 44.824-19.962 45.095-44.6h59.849c.27 24.638 20.39 44.6 45.096 44.6 24.704 0 44.824-19.962 45.095-44.6h14.671c.27 24.638 20.39 44.6 45.096 44.6 24.704 0 44.824-19.962 45.095-44.6h15.985c8.284 0 15-6.716 15-15v-59.5c0-8.252-6.665-14.943-14.904-14.995zm-437.023-211.505h392.017c8.274 0 15.006 6.729 15.006 15v196.5h-422.112l.083-196.506c.002-8.268 6.735-14.994 15.006-14.994zm15.967 315.6c-8.162 0-14.816-6.506-15.083-14.6h30.165c-.267 8.094-6.921 14.6-15.082 14.6zm104.978 0c-8.162 0-14.816-6.506-15.083-14.6h30.165c-.267 8.094-6.921 14.6-15.082 14.6zm150.039 0c-8.162 0-14.816-6.506-15.083-14.6h30.165c-.267 8.094-6.921 14.6-15.082 14.6zm104.861 0c-8.162 0-14.816-6.506-15.083-14.6h30.165c-.267 8.094-6.921 14.6-15.082 14.6zm46.082-44.6h-452v-29.5h452z" fill="#f05454" data-original="#000000" style="" class=""/></g></g></svg>
