<?xml version="1.0"?>
<svg xmlns="http://www.w3.org/2000/svg" xmlns:xlink="http://www.w3.org/1999/xlink" xmlns:svgjs="http://svgjs.com/svgjs" version="1.1" width="512" height="512" x="0" y="0" viewBox="0 0 512 512" style="enable-background:new 0 0 512 512" xml:space="preserve" class=""><g><g xmlns="http://www.w3.org/2000/svg"><path d="m256 166c-74.439 0-135 60.561-135 135s60.561 135 135 135 135-60.561 135-135-60.561-135-135-135zm0 240c-57.897 0-105-47.103-105-105s47.103-105 105-105 105 47.103 105 105-47.103 105-105 105z" fill="#f05454" data-original="#000000" style="" class=""/><path d="m454.949 146.903-63.379-56.637c-6.177-5.521-15.659-4.987-21.18 1.189l-30.755 34.415c-21.082-10.051-44.235-16.434-68.635-18.299v-18.571h30c8.284 0 15-6.716 15-15v-59c0-8.284-6.716-15-15-15h-90c-8.284 0-15 6.716-15 15v59c0 8.284 6.716 15 15 15h30v18.571c-24.4 1.865-47.553 8.248-68.635 18.299l-30.755-34.415c-5.52-6.176-15.003-6.708-21.18-1.189l-63.379 56.638c-6.177 5.52-6.71 15.003-1.189 21.18l31.805 35.59c-16.939 28.886-26.667 62.489-26.667 98.326v165c0 24.813 20.187 45 45 45h300c24.813 0 45-20.187 45-45v-165c0-35.837-9.728-69.44-26.666-98.327l31.805-35.59c5.52-6.177 4.987-15.66-1.19-21.18zm-228.949-116.903h60v29h-60zm195 272v119h-45c-8.284 0-15 6.716-15 15v46h-210v-46c0-8.284-6.716-15-15-15h-45v-119c0-90.981 74.019-165 165-165s165 74.019 165 165zm-332.774-142.723 41.01-36.647 16.592 18.566c-15.195 10.443-28.846 22.975-40.526 37.189zm2.774 307.723v-16h30v31h-15c-8.271 0-15-6.729-15-15zm315 15h-15v-31h30v16c0 8.271-6.729 15-15 15zm-39.827-340.804 16.592-18.566 41.01 36.647-17.075 19.108c-11.681-14.214-25.332-26.746-40.527-37.189z" fill="#f05454" data-original="#000000" style="" class=""/><path d="m287.82 247.967-42.427 42.427c-5.858 5.857-5.858 15.355 0 21.213 5.859 5.858 15.355 5.858 21.213 0l42.427-42.427c5.858-5.857 5.858-15.355 0-21.213-5.857-5.858-15.355-5.858-21.213 0z" fill="#f05454" data-original="#000000" style="" class=""/></g></g></svg>
