<?xml version="1.0"?>
<svg xmlns="http://www.w3.org/2000/svg" xmlns:xlink="http://www.w3.org/1999/xlink" xmlns:svgjs="http://svgjs.com/svgjs" version="1.1" width="512" height="512" x="0" y="0" viewBox="0 0 512 512" style="enable-background:new 0 0 512 512" xml:space="preserve" class=""><g><g xmlns="http://www.w3.org/2000/svg"><path d="m415.919 29.888-69.756.112c-13.597-18.198-35.302-30-59.713-30h-60.9c-24.411 0-46.116 11.802-59.713 30-84.937-.136-67.333-.112-69.814-.112-19.157 0-34.998 15.478-34.998 35v412.112c0 19.299 15.701 35 35 35h319.949c19.299 0 35-15.701 35-35v-412.112c.001-19.199-15.493-35-35.055-35zm-190.369.112h60.9c19.276 0 35.729 12.32 41.898 29.5h-144.697c6.169-17.18 22.622-29.5 41.899-29.5zm195.425 447c0 2.757-2.243 5-5 5h-319.95c-2.757 0-5-2.243-5-5 .983-443.941-3.335-414.561 5.007-417.112l56.449.091c-.932 4.699-1.431 9.553-1.431 14.522 0 8.284 6.716 15 15 15h179.9c8.284 0 15-6.716 15-15 0-4.969-.499-9.823-1.431-14.522.118 0 56.563-.091 56.457-.091 2.757 0 4.999 2.233 4.999 5z" fill="#f05454" data-original="#000000" style="" class=""/><path d="m375.95 121h-119.95c-8.284 0-15 6.716-15 15s6.716 15 15 15h119.95c8.284 0 15-6.716 15-15s-6.716-15-15-15z" fill="#f05454" data-original="#000000" style="" class=""/><path d="m256 210.5h90c8.284 0 15-6.716 15-15s-6.716-15-15-15h-90c-8.284 0-15 6.716-15 15s6.716 15 15 15z" fill="#f05454" data-original="#000000" style="" class=""/><path d="m195.55 121h-59.5c-8.284 0-15 6.716-15 15v59.5c0 8.284 6.716 15 15 15h59.5c8.284 0 15-6.716 15-15v-59.5c0-8.284-6.716-15-15-15zm-15 59.5h-29.5v-29.5h29.5z" fill="#f05454" data-original="#000000" style="" class=""/><path d="m375.95 241.25h-119.95c-8.284 0-15 6.716-15 15s6.716 15 15 15h119.95c8.284 0 15-6.716 15-15s-6.716-15-15-15z" fill="#f05454" data-original="#000000" style="" class=""/><path d="m256 330.75h90c8.284 0 15-6.716 15-15s-6.716-15-15-15h-90c-8.284 0-15 6.716-15 15s6.716 15 15 15z" fill="#f05454" data-original="#000000" style="" class=""/><path d="m195.55 241.25h-59.5c-8.284 0-15 6.716-15 15v59.5c0 8.284 6.716 15 15 15h59.5c8.284 0 15-6.716 15-15v-59.5c0-8.284-6.716-15-15-15zm-15 59.5h-29.5v-29.5h29.5z" fill="#f05454" data-original="#000000" style="" class=""/><path d="m375.95 361.75h-119.95c-8.284 0-15 6.716-15 15s6.716 15 15 15h119.95c8.284 0 15-6.716 15-15s-6.716-15-15-15z" fill="#f05454" data-original="#000000" style="" class=""/><path d="m346 421.25h-90c-8.284 0-15 6.716-15 15s6.716 15 15 15h90c8.284 0 15-6.716 15-15s-6.716-15-15-15z" fill="#f05454" data-original="#000000" style="" class=""/><path d="m195.55 361.75h-59.5c-8.284 0-15 6.716-15 15v59.5c0 8.284 6.716 15 15 15h59.5c8.284 0 15-6.716 15-15v-59.5c0-8.284-6.716-15-15-15zm-15 59.5h-29.5v-29.5h29.5z" fill="#f05454" data-original="#000000" style="" class=""/></g></g></svg>
