<svg width="428" height="140" viewBox="0 0 428 140" fill="none" xmlns="http://www.w3.org/2000/svg">
<g clip-path="url(#clip0)">
<path d="M303.742 25.2496L323.742 4.63124C324.237 4.12107 324.822 3.86591 325.5 3.86591C326.177 3.86591 326.763 4.12107 327.257 4.63124C327.752 5.1417 328 5.74582 328 6.44374V16.7529H336.75C355.318 16.7529 366.711 22.1628 370.93 32.9821C372.31 36.5792 373 41.0498 373 46.3923C373 50.8487 371.346 56.9025 368.039 64.5542C367.961 64.7425 367.825 65.0639 367.629 65.5202C367.434 65.9763 367.258 66.379 367.102 66.7283C366.945 67.0769 366.776 67.3722 366.594 67.6136C366.281 68.0701 365.917 68.2989 365.5 68.2989C365.109 68.2989 364.803 68.1648 364.582 67.8964C364.361 67.6281 364.25 67.2921 364.25 66.8904C364.25 66.6481 364.283 66.2929 364.348 65.8228C364.413 65.3527 364.446 65.038 364.446 64.8766C364.576 63.0517 364.641 61.3993 364.641 59.9238C364.641 57.2124 364.413 54.7827 363.958 52.635C363.502 50.487 362.87 48.6282 362.063 47.0575C361.255 45.4862 360.214 44.1314 358.938 42.9903C357.662 41.8492 356.288 40.9166 354.817 40.1916C353.345 39.4665 351.614 38.8959 349.621 38.48C347.629 38.0639 345.624 37.7752 343.606 37.6139C341.587 37.4527 339.302 37.3726 336.75 37.3726H328V47.6821C328 48.38 327.753 48.9843 327.258 49.4941C326.763 50.0038 326.177 50.2592 325.501 50.2592C324.824 50.2592 324.237 50.0038 323.742 49.4941L303.742 28.875C303.247 28.3649 303 27.761 303 27.063C303 26.3651 303.247 25.7608 303.742 25.2496Z" fill="white"/>
</g>
<path d="M6.72 58.8H39.36C44.288 58.8 48.544 59.248 52.128 60.144C55.776 60.976 58.784 62.192 61.152 63.792C63.52 65.328 65.28 67.184 66.432 69.36C67.584 71.536 68.16 73.936 68.16 76.56C68.16 79.952 67.2 82.896 65.28 85.392C63.36 87.888 60.48 89.744 56.64 90.96C61.44 91.92 65.184 93.808 67.872 96.624C70.624 99.376 72 102.928 72 107.28C72 113.04 69.6 117.616 64.8 121.008C60.064 124.336 52.544 126 42.24 126H6.72V58.8ZM20.64 95.28V118.8H42.24C47.04 118.8 50.72 117.84 53.28 115.92C55.84 114 57.12 111.12 57.12 107.28C57.12 103.184 55.84 100.176 53.28 98.256C50.72 96.272 47.04 95.28 42.24 95.28H20.64ZM39.36 88.08C48.64 88.08 53.28 84.24 53.28 76.56C53.28 73.168 52.096 70.576 49.728 68.784C47.424 66.928 43.968 66 39.36 66H20.64V88.08H39.36ZM118.061 58.8C122.861 58.8 127.149 59.344 130.925 60.432C134.765 61.456 137.997 62.992 140.621 65.04C143.245 67.024 145.261 69.488 146.669 72.432C148.077 75.312 148.781 78.608 148.781 82.32C148.781 87.44 147.501 91.76 144.941 95.28C142.381 98.8 138.701 101.488 133.901 103.344L149.741 126H133.901L119.789 105.84H118.061H97.4213V126H83.5013V58.8H118.061ZM97.4213 66V98.64H118.061C123.117 98.64 127.021 97.328 129.773 94.704C132.525 92.016 133.901 87.888 133.901 82.32C133.901 76.752 132.525 72.656 129.773 70.032C127.021 67.344 123.117 66 118.061 66H97.4213ZM174.203 126H160.283V58.8H174.203V126ZM256.778 58.8V126H238.538L202.538 71.28H201.578V126H187.658V58.8H205.898L241.898 113.52H242.858V58.8H256.778ZM308.363 91.536L336.971 126H320.651L300.203 101.424L279.851 126H263.531L292.043 91.536L264.971 58.8H281.291L300.203 81.744L319.211 58.8H335.531L308.363 91.536Z" fill="white"/>
<g clip-path="url(#clip1)">
<path d="M361.708 77.2567L343.982 81.7533C342.813 82.05 342 83.04 342 84.1667V119.167C342 120.293 342.813 121.283 343.982 121.58L361.708 126.077V77.2567Z" fill="white"/>
<path d="M425.549 81.6767L367.083 76.8767V126.457L425.549 121.657C426.936 121.543 428 120.463 428 119.167V84.1667C428 82.87 426.936 81.79 425.549 81.6767ZM379.625 114.167C379.625 115.547 378.421 116.667 376.937 116.667C375.454 116.667 374.25 115.547 374.25 114.167V89.1667C374.25 87.7867 375.454 86.6667 376.937 86.6667C378.421 86.6667 379.625 87.7867 379.625 89.1667V114.167ZM393.958 112.5C393.958 113.88 392.754 115 391.271 115C389.787 115 388.583 113.88 388.583 112.5V90.8333C388.583 89.4533 389.787 88.3333 391.271 88.3333C392.754 88.3333 393.958 89.4533 393.958 90.8333V112.5ZM408.292 110.833C408.292 112.213 407.088 113.333 405.604 113.333C404.121 113.333 402.917 112.213 402.917 110.833V92.5C402.917 91.12 404.121 90 405.604 90C407.088 90 408.292 91.12 408.292 92.5V110.833ZM420.833 110C420.833 111.38 419.629 112.5 418.146 112.5C416.662 112.5 415.458 111.38 415.458 110V94.1667C415.458 92.7867 416.662 91.6667 418.146 91.6667C419.629 91.6667 420.833 92.7867 420.833 94.1667V110Z" fill="white"/>
</g>
<defs>
<clipPath id="clip0">
<rect width="70" height="72.1649" fill="white" transform="matrix(-1 0 0 1 373 0)"/>
</clipPath>
<clipPath id="clip1">
<rect width="86" height="80" fill="white" transform="translate(342 60)"/>
</clipPath>
</defs>
</svg>
